<?xml version="1.0" encoding="utf-8"?>
<!-- Generator: Adobe Illustrator 27.5.0, SVG Export Plug-In . SVG Version: 6.00 Build 0)  -->
<svg version="1.1" id="Layer_1" xmlns="http://www.w3.org/2000/svg" xmlns:xlink="http://www.w3.org/1999/xlink" x="0px" y="0px"
	 viewBox="0 0 1100 1200" style="enable-background:new 0 0 1100 1200;" xml:space="preserve">
<rect style="fill:transparent;" width="1100" height="1200"/>
<g>
	<path style="fill:#fff0e0;" d="M239.517,700.722c-58.971,78.039-125.413,136.665-100.077,240.84
		c9.492,39.028,25.637,78.133,31.302,117.815c2.794,19.573,13.656,60.826,10.844,85.866h833.749
		c-47.257-47.372-70.418-132.909-67.246-192.619c3.815-71.855,56.291-121.074,88.961-181.949
		c16.454-30.655,27.9-67.629,24.372-102.26c-4.102-40.27-36.139-73.317-53.641-109.691c-37.92-78.812-48.293-152.055-47.118-236.347
		c2.078-149.148-125.051-199.699-265.079-211.316c-78.8-6.538-157.906-4.967-235.985-15.381
		c-69.115-9.218-136.14-22.861-206.108-25.85c-72.758-3.108-131.074,15.972-148.573,85.406
		c-16.645,66.056,7.641,121.463,40.898,179.661C210.895,448.777,336.866,571.896,239.517,700.722z"/>
	<g>
		<path style="fill:#fff0e0;" d="M31.262,1144.624c0,9.848,232.248,17.831,518.738,17.831c286.492,0,518.738-7.983,518.738-17.831
			c0-9.849-232.246-17.832-518.738-17.832C263.51,1126.792,31.262,1134.775,31.262,1144.624z"/>
		<g>
			<g>
				<path style="fill:#FFFFFF;" d="M743.446,350.182c-5.691,2.104-17.854,5.11-21.742,9.773
					c-7.368,8.838-18.547,13.607-27.905,20.129c-19.981,13.936-46.104,29.228-69.812,35.858c-6.906,1.933-27.954-3.149-36.109-13.62
					c-3.871-4.98-4.834-11.175,0.024-18.423c5.851-8.73,15.522-13.516,23.762-19.729c11.034-8.325,22.27-17.897,32.739-27.002
					c18.291-15.927,35.307-37.145,49.699-56.35c9.758-13.018,17.893-18.492,31.675-25.791l12.322,66.375L743.446,350.182z"/>
				<path style="fill:#EAE1DF;" d="M743.446,350.182c-29.593,37.143-95.75,59.131-119.459,65.761
					c-6.906,1.933-27.954-3.149-36.109-13.62c6.083-1.104,12.136-2.484,18.257-3.926c27.646-6.477,53.076-17.956,77.279-32.74
					c19.775-12.086,36.823-29.29,54.685-44.254L743.446,350.182z"/>
			</g>
			<g>
				<g>
					<g>
						<path style="fill:#E6F5FB;" d="M451.012,509.725c-5.379,24.218-24.703,117.835-66.398,100.031
							c-2.495-12.625-9.022-27.185-19.025-36.701c-2.324-2.215-4.839-4.157-7.535-5.734c22.483-40.921,36.557-92.671,39.29-139.975
							l14.772-54.283c1.984-10.271,13.996-44.795,32.896-36.624c15.983,6.904,21.063,24.944,22.28,38.005
							c0.111,1.159,0.203,2.339,0.287,3.526C470.345,417.407,459.575,471.182,451.012,509.725z"/>
						<path style="fill:#D5DDDD;" d="M451.012,509.725c-5.379,24.218-24.703,117.835-66.398,100.031
							c-2.495-12.625-9.022-27.185-19.025-36.701c31.785-11.22,47.596-39.789,59.541-72.387
							c7.468-20.372,13.659-42.46,19.929-63.557c3.144-10.555,13.267-64.352,8.395-68.557l14.125,9.415
							C470.345,417.407,459.575,471.182,451.012,509.725z"/>
					</g>
					<g>
						<path style="fill:#008BC6;" d="M697.23,674.732c-4.816-40.854-53.956-50.503-63.122-153.848
							c-2.213-24.977,1.58-125.554-9.845-146.896c-14.094-26.324-72.017-80.049-71.219-79.36l-65.357,18.308
							c-7.844,9.521-35.708,17.283-49.504,40.843c-13.602,23.229,65.013,343.701,85.29,369.201L697.23,674.732z"/>
						<g>
							<g>
								<g>
									<path style="fill:#FFA471;" d="M546.597,233.517c1.839,9.183,5.976,30.36,8.843,46.402
										c1.115,6.229,2.031,11.68,2.553,15.359c2.219,15.696-25.62,76.398-37.69,93.659c-7.116-5.793-13.805-15.35-19.38-25.011
										c-9.231-16.004-13.179-26.722-13.179-26.722s-4.352-53.527-5.977-70.596l54.372-27.138L546.597,233.517z"/>
								</g>
							</g>
						</g>
						<path style="fill:#E6F5FB;" d="M464.671,321.547l19.093,65.138c0.44,38.02,10.23,77.779,18.575,116.453
							c8.478,39.311,15.509,79.077,23.168,119.238c9.497,49.802,45.271,235.514,41.658,244.569
							c-4.793,12.016-45.451,16.821-64.73,11.649c-1.705-7.737-10.686-59.806-21.043-120.236
							c-3.054-17.811-38.523-293.21-49.599-343.881c-4.249-19.444-14.604-59.448,0.22-75.141
							C444.674,325.925,460.315,325.943,464.671,321.547z"/>
						<path style="fill:#E6F5FB;" d="M653.985,428.126c4.099,50.647,24.622,163.079,32.967,192.33
							c1.729,6.067,77.059,179.687,74.302,185.28c-2.997,6.06-50.642,32.824-56.755,35.252
							c-22.877,9.066-62.109,19.579-86.581,20.493c0.076-15.255-46.516-206.731-50.036-221.889
							c-2.868-12.351-5.408-24.592-7.75-36.895c-1.527-8.044-2.971-16.117-4.361-24.266c-0.636-3.725-1.201-7.469-1.688-11.234
							c-2.137-16.511-2.848-33.369-2.048-50.079c1.124-23.502-2.167-48.232,1.652-71.655c3.542-21.688,3.494-44.317,5.847-66.279
							c0.852-7.987,9.67-42.596,7.307-45.297l-3.052-32.083c16.681,11.893,60.367,2.003,80.269,19.353
							C673.427,346.76,651.456,396.867,653.985,428.126z"/>
						<path style="fill:#C1D6DD;" d="M566.765,350.669c4.765,4.376,11.954,7.13,16.421,11.777
							c-19.137,28.254-24.585,122.098-22.687,185.395c0.47,15.951,1.417,29.958,2.726,40.49c0.085,0.697,0.172,1.393,0.267,2.088
							c4.434,34.784,11.819,69.287,18.997,99.052c7.716,32.01,18.256,89.578,21.582,105.098
							c-11.088-37.504-35.849-121.903-51.021-189.714c-2.655-11.875-5.113-24.199-7.279-36.956
							c-5.612-33.062-9.262-69.053-9.338-107.837c-0.209-101.847,20.423-170.842,20.423-170.842
							c6.484,3.242,31.778,16.967,32.96,18.91c4.546,7.453,1.621,17.831,0.542,26.478
							C582.641,338.059,573.971,346.861,566.765,350.669z"/>
						<g>
							<path style="fill:#E6E8EA;" d="M485.614,306.797l0.117,1.441c0.367-0.04,0.733-0.077,1.108-0.104
								C487.988,306.684,486.549,307.505,485.614,306.797z"/>
							<g>
								<path style="fill:#C1D6DD;" d="M454.73,324.882c0,0-9.187,22.534-12.969,32.421c6.321,1.421,18.652-1.55,24.225,0.928
									c-4.149,9.937-19.424,23.306-23.873,33.389c3.433,1.712,18.218,10.401,32.445,64.029
									c23.154,87.277,71.606,287.152,74.202,300.632c2.795-14.217-53.277-338.625-58.741-367.213
									c-4.237-22.165-8.648-50.157-4.948-72.347l0.659-8.482C470.4,312.994,454.73,324.882,454.73,324.882z"/>
							</g>
						</g>
						<path style="opacity:0.8;fill:#B0B4B6;" d="M634.628,668.823l-1.311,0.442c1.271,13.301,25.679,48.077,45.219,43.237
							c24.54-6.08,12.495-46.85,9.277-62.893C669.396,654.809,652.627,662.738,634.628,668.823z"/>
						<g>
							<polygon style="fill:#473239;" points="433.001,239.302 431.561,238.011 451.329,212.99 452.769,214.28 							"/>
							<path style="fill:#2F191F;" d="M437.556,166.555c0.414,18.094,1.776,41.131,10.073,58.864
								c-2.908-7.15-0.469-17.957,0.731-25.435c1.77-11.037,5.491-26.314,11.101-34.759L437.556,166.555z"/>
							<path style="fill:#FFA471;" d="M549.433,183.996c0.23,8.751,0.698,19.72,0.684,31.512c0.006,0.35,0.002,0.712,0.003,1.068
								c-0.015,3.178-0.055,6.417-0.149,9.685c-1.231,42.121-10.722,89.043-58.307,82.492c-15.801-2.172-20.195-7.045-24.294-16.446
								c-1.573-3.605-3.103-7.881-5.218-12.924c-5.967-14.244-14.16-26.592-16.616-42.054c-2.15-13.535,1.683-27.444-0.288-40.469
								c-2.202-14.607-1.051-32.365-2.479-45.475l16.705-10.411c17.067-16.384,41.457-16.556,63.229-7.435
								C544.565,142.705,548.872,162.112,549.433,183.996z"/>
							<path style="fill:#1B0C11;" d="M550.261,215.595c-0.051,0.324-0.1,0.655-0.141,0.982c-0.42,3.138-0.36,6.391-0.149,9.685
								c-1.231,42.121-10.722,89.043-58.307,82.492c-15.801-2.172-20.195-7.045-24.294-16.446
								c4.843-0.002,10.529-3.167,8.838-13.493c-0.456-2.78,6.424-1.393,9.727-1.621c10.724,20.618,37.298,7.858,46.273-6.308
								c5.343-8.432,7.073-18.622,8.352-28.197c1.042-7.74,0.744-27.258-2.913-34.468l12.47,7.287L550.261,215.595z"/>
							<g>
								<path style="fill:#EEEEEE;" d="M519.33,216.096c-0.858,3.53-3.491,6.312-6.766,8.115
									c-7.144,3.934-17.301,3.216-18.611-4.552c0,0,2.978-6.633,9.099-7.56c0.92-0.14,1.834-0.269,2.726-0.375
									C510.563,211.178,514.969,211.497,519.33,216.096z"/>
								<path style="fill:#20181A;" d="M505.779,211.723c-0.892,0.106-1.806,0.235-2.726,0.375
									c-3.324,0.503-5.721,2.689-7.217,4.583c0.963,2.267,1.061,4.974,0.367,7.322c3.684,3.499,10.9,3.213,16.361,0.208
									c-0.459-1.848-1.16-3.772-2.104-5.689C509.141,215.845,507.512,213.526,505.779,211.723z"/>
								<path style="fill:#E07F4F;" d="M502.298,208.591c-6.123,0.93-8.343,11.066-8.343,11.066
									c4.274,6.065,22.794,0.274,25.378-3.561C514.149,210.631,508.147,207.701,502.298,208.591z"/>
							</g>
							<g>
								<path style="fill:#EEEEEE;" d="M468.699,224.115c-0.474,3.34-2.509,5.829-5.163,7.326
									c-5.794,3.269-14.492,1.833-16.174-5.751c0,0,2.047-6.176,7.19-6.62c0.772-0.069,1.54-0.125,2.292-0.161
									C460.875,218.735,464.647,219.365,468.699,224.115z"/>
								<path style="fill:#20181A;" d="M456.843,218.908c-0.752,0.036-1.519,0.092-2.292,0.161
									c-2.792,0.241-4.672,2.173-5.807,3.888c0.985,2.255,1.268,4.872,0.849,7.083c3.393,3.643,9.514,3.897,13.942,1.4
									c-0.527-1.814-1.267-3.722-2.209-5.637C460.008,223.128,458.45,220.772,456.843,218.908z"/>
								<path style="fill:#E07F4F;" d="M453.65,215.633c-5.142,0.447-6.288,10.054-6.288,10.054
									c4.083,6.16,19.418,1.936,21.339-1.57C463.886,218.469,458.562,215.205,453.65,215.633z"/>
							</g>
							<path style="fill:#1B0C11;" d="M490.194,210.545c4.835-1.652,9.751-3.035,14.817-3.701c4.968-0.651,10.003-0.95,15.008-0.689
								c0.146-2.184,0.293-4.366,0.45-6.548c-6.033-1.611-21.273-1.7-25.962-0.291c-6.144,1.849-5.835,5.23-4.704,11.377
								C489.931,210.644,490.061,210.59,490.194,210.545z"/>
							<path style="fill:#1B0C11;" d="M464.423,215.81c-3.651-1.104-7.35-1.932-11.137-2.033c-3.711-0.099-7.456,0.161-11.157,0.972
								c-0.194-2.148-0.385-4.297-0.586-6.444c4.413-2.265,15.715-4.036,19.245-3.155c4.631,1.155,4.531,4.542,3.931,10.763
								C464.621,215.878,464.523,215.84,464.423,215.81z"/>
							<g>
								<g>
									<path style="fill:#2F191F;" d="M437.69,181.298c0.006-0.03,0.008-0.06,0.015-0.09c-0.028,0.021-0.055,0.043-0.084,0.064
										C437.52,181.601,437.543,181.609,437.69,181.298z"/>
									<path style="fill:#2F191F;" d="M568.224,154.652c-3.009-0.423-6.049,0.397-8.74,2.202
										c11.471,9.606,7.105,32.199,2.901,44.822c-2.042,6.136-3.022,12.006-4.649,17.938c-1.284,4.694-1.207,4.422-5.891,7.248
										c-2.296,1.385-10.83,4.934-10.83,4.934c1.274-5.242,0.161-12.939-4.154-21.731c-2.353-4.787-13.252-8.697-12.465-14.964
										c3.402-27.149-7.075-24.361-14.47-21.984c-10.526,3.38-51.695,11.965-62.555,11.893c-6.182-0.041-23.277-3.33-22.717-9.187
										c0.256-2.667,3.081-6.642,6.452-10.522c4.053-4.668,8.893-9.206,10.959-11.156c-4.094-1.616-8.653-1.698-12.362-4.114
										c6.258-6.728,18.26-13.106,27.172-14.92c-1.922-3.557-5.273-5.946-7.852-9.065c4.774-0.948,54.338-34.569,96.991,15.539
										c0.639,0.754,1.283,1.53,1.921,2.323c0.434-3.082-0.132-8.057-0.457-9.753c3.891,3.984,4.504,8.421,6.781,13.412
										c1.971-2.943,5.561-4.355,8.813-4.995c-3.13,1.875-6.147,5.561-6.886,9.069
										C561.085,149.008,564.897,150.731,568.224,154.652z"/>
								</g>
								<path style="fill:#1B0C11;" d="M568.224,154.652c-3.009-0.423-6.049,0.397-8.74,2.202
									c11.471,9.606,7.105,32.199,2.901,44.822c-2.042,6.136-3.022,12.006-4.649,17.938c-1.284,4.694-1.207,4.422-5.891,7.248
									c-2.296,1.385-10.83,4.934-10.83,4.934c-0.885-6.966,0.161-12.939-4.154-21.731c-2.353-4.787-13.252-8.697-12.465-14.964
									c3.402-27.149-7.075-24.361-14.47-21.984c-10.526,3.38-51.695,11.965-62.555,11.893c-6.182-0.041-23.277-3.33-22.717-9.187
									c0.256-2.667,3.081-6.642,6.452-10.522c2.044,1.918,4.423,3.497,7.011,4.615c8.62,3.745,17.9,2.327,26.969,0.822
									c7.876-1.311,15.332-3.566,22.698-6.371c5.914-2.252,11.925-4.352,18.308-4.201c6.356,0.151,13.345,1.249,18.266,5.844
									c5.1,4.77,6.685,11.108,9.251,17.231c4.914-4.56,1.333-16.56-0.622-21.812c3.929,0.898,7.15,4.986,9.112,8.169
									c1.59-1.62,1.135-6.106,0.672-8.255c6.125,1.53,8.202,13.017,8.569,17.987c3.657-9.864,0.185-20.439-2.735-29.632
									c-0.862-2.728-1.634-5.418-2.59-8.113c0.639,0.754,1.283,1.53,1.921,2.323c0.434-3.082-0.132-8.057-0.457-9.753
									c3.891,3.984,4.504,8.421,6.781,13.412c1.971-2.943,5.561-4.355,8.813-4.995c-3.13,1.875-6.147,5.561-6.886,9.069
									C561.085,149.008,564.897,150.731,568.224,154.652z"/>
							</g>
							<path style="fill:#EE6E46;" d="M465.754,265.979l5.932,9.086c13.358,12.342,25.75-6.338,26.793-12.834
								C492.825,263.558,471.605,266.27,465.754,265.979z"/>
							<path style="fill:#1B0C11;" d="M479.165,256.195l-12.707,2.864c-1.709,1.426-19.059,12.878-10.746,12.583
								c2.749-0.099,47.938-4.476,53.919-3.636C514.951,268.751,500.385,255.689,479.165,256.195z"/>
							<path style="fill:#E07F4F;" d="M474.069,255.793c3.818-10.601,2.221-31.781,2.221-31.781
								c-1.064,6.444-2.007,12.88-3.679,19.172c-1.455,5.473-4.193,10.49-6.153,15.875c5.992,3.58,19.811,2.171,23.707-3.431
								C487.107,254.589,479.519,253.959,474.069,255.793z"/>
							<path style="fill:#473239;" d="M460.416,250.268c-10.254,5.052-22.704,0.819-27.754-9.434
								c-5.05-10.252-0.819-22.704,9.433-27.755c10.255-5.051,22.706-0.819,27.756,9.436
								C474.901,232.768,470.672,245.218,460.416,250.268z M442.961,214.835c-9.285,4.575-13.118,15.848-8.544,25.134
								c4.575,9.285,15.848,13.116,25.132,8.542c9.285-4.572,13.118-15.848,8.544-25.132
								C463.522,214.094,452.246,210.262,442.961,214.835z"/>
							<path style="fill:#473239;" d="M514.031,243.872c-10.252,5.05-22.704,0.819-27.754-9.435
								c-5.051-10.252-0.819-22.704,9.435-27.753c10.253-5.052,22.704-0.819,27.754,9.434
								C528.518,226.37,524.287,238.82,514.031,243.872z M496.578,208.439c-9.285,4.573-13.117,15.849-8.544,25.132
								c4.574,9.285,15.848,13.118,25.133,8.545c9.285-4.576,13.117-15.849,8.544-25.135
								C517.136,207.699,505.862,203.865,496.578,208.439z"/>
							<path style="fill:#473239;" d="M485.036,226.374c-5.602-3.246-10.999-0.614-14.539,2.166L469.288,227
								c5.677-4.457,11.616-5.283,16.731-2.32L485.036,226.374z"/>
							<path style="fill:#473239;" d="M569.388,215.52l-1.686,0.815c-0.228-0.466-5.648-11.408-13.539-8.246
								c-8.339,3.343-29.423,13.769-29.633,13.872l-0.869-1.755c0.212-0.105,21.359-10.562,29.763-13.93
								C561.039,203.223,567.196,210.988,569.388,215.52z"/>
							<g>
								<path style="fill:#FFA471;" d="M546.285,221.07c-0.686,2.502-0.782,10.343-0.782,10.343
									c-3.019,7.82,2.203,23.016,12.612,18.953c6.219-2.428,10.23-14.913,11.813-20.888
									C576.344,205.244,551.675,201.413,546.285,221.07z"/>
								<path style="fill:#E07F4F;" d="M549.832,228.719c3.562-3.107,7.461,0.342,6.891,4.678c-0.47,3.567-8.133,3.994-8.133,3.994
									c3.407,3.858,11.566,3.326,13.782-3.604c1.679-5.248-3.663-15.834-9.614-10.169c-0.002-4.83,7.332-12.391,11.838-7.701
									C557.259,206.954,545.512,219.967,549.832,228.719z"/>
							</g>
						</g>
					</g>
					<g>
						<path style="fill:#E6F5FB;" d="M667.531,350.594c-3.248-12.707-11.094-29.727-27.961-34.04
							c-19.951-5.1-26.399,30.871-26.746,41.334l-6.079,55.924c4.712,47.148-1.075,100.463-16.865,144.402
							c15.417,6.028,27.407,22.855,32.881,37.746c43.974,11.046,48.386-84.442,49.903-109.203
							C675.149,446.166,677.412,389.235,667.531,350.594z"/>
						<path style="fill:#C1D6DD;" d="M652.673,556.323c-8.267-18.044-26.581-28.35-45.927-24.856
							c-15.315,2.766-35.477,19.97-29.177,36.743l19.451,32.824c16.141,8.712,33.844,16.292,48.931,1.517
							C657.873,590.875,659.47,571.162,652.673,556.323z"/>
					</g>
					<path style="fill:#C1D6DD;" d="M615.52,398.109c-3.443,46.957-10.753,96.447-24.584,139.713h17.021
						c3.081-22.011,7.333-44.792,8.506-68.082C617.548,448.174,621.964,417.988,615.52,398.109z"/>
				</g>
				<g>
					<g>
						<g>
							<g>
								<path style="fill:#FF9A72;" d="M788.064,1042.046c0.517,8.512,4.809,23.143,6.964,33.436
									c1.486,7.098,1.42,32.132,5.689,36.664c15.81,16.776,16.198-54.072,15.946-61.782L788.064,1042.046z"/>
								<path style="fill:#FFFFFF;" d="M815.884,1093.761l-14.222-1.793c-6.732-9.065-9.837,1.491-12.714,5.875
									c-3.416,5.205-10.073,9.048-15.026,12.064c-8.734,5.316-30.333,9.309-27.424,24.483c17.449,1.868,53.704,2.313,71.805-0.222
									c7.789-1.092,1.627-7.969-0.182-20.008C816.876,1105.874,817.463,1101.818,815.884,1093.761z"/>
								<path style="fill:#006B6B;" d="M773.087,903.94c0.387,12.003,3.011,38.192,6.123,66.396
									c4.854,43.978,10.895,92.87,11.481,100.55l25.912,0.232c6.904-32.193,12.072-65.66,17.941-97.418
									c3.316-17.956,6.712-36.22,9.234-54.642c4.729-34.502,6.404-69.563-1.197-104.235c-5.681-25.916,3.467-99.723,3.931-127.094
									c0.463-27.031-11.906-16.061-1.008-40.334l-72.785,39.602c2.071,20.215,2.426,40.549,4.074,61.07
									C781.823,810.466,771.011,840.127,773.087,903.94z"/>
								<path style="fill:#00504E;" d="M779.21,970.336c4.854,43.978,10.895,92.87,11.481,100.55l25.912,0.232
									c6.904-32.193,12.072-65.66,17.941-97.418c3.316-17.956,6.712-36.22,9.234-54.642c-1.893,5.686-4.061,11.258-6.527,16.682
									c-10.366,22.8-29.506,40.521-53.782,35.648C782.071,971.107,780.648,970.76,779.21,970.336z"/>
							</g>
							<g>
								<path style="fill:#FF9A72;" d="M889.073,1042.008c0.238,8.531,4.053,23.322,5.868,33.699
									c1.25,7.152,0.369,32.167,4.49,36.869c15.25,17.406,17.95-53.376,17.95-61.09L889.073,1042.008z"/>
								<path style="fill:#FFFFFF;" d="M905.802,1086.775c-10.037-1.121-11.902,8.205-13.684,12.635
									c-2.115,5.267-5.555,6.874-8.833,9.979c-5.783,5.473-20.515,9.885-17.792,24.969c12.142,1.534,42.548,2.676,54.935-0.202
									c5.33-1.24,1.888-5.268-2.832-18.426C914.815,1107.963,915.238,1087.827,905.802,1086.775z"/>
								<path style="fill:#006B6B;" d="M861.457,754.298c8.296,61.964-0.931,92.281,4.489,155.845
									c1.367,16.036,5.778,38.886,10.072,61.382c3.901,20.449,7.706,40.608,9.039,55.094c1.068,11.6,2.45,35.05,4.068,47.573
									h29.051c5.197-32.594,8.605-66.34,12.788-98.429c2.825-21.615,5.731-43.677,7.138-65.829
									c1.988-31.247,0.984-62.675-7.465-93.294c-7.03-25.504-3.434-90.767-4.409-118.119
									c-0.961-27.011-11.073-24.274-1.473-49.217L854.184,693.6C857.313,713.644,858.734,733.919,861.457,754.298z"/>
								<path style="fill:#00504E;" d="M876.018,971.525c3.901,20.449,7.706,40.608,9.039,55.094
									c1.068,11.6,2.45,35.05,4.068,47.573h29.051c5.197-32.594,8.605-66.34,12.788-98.429
									c2.825-21.615,5.731-43.677,7.138-65.829C923.983,944.421,901.258,976.002,876.018,971.525z"/>
							</g>
							<path style="fill:#FFFFFF;" d="M966.805,731.326c-2.164,3.323-74.253,25.831-130.974,17.11
								c-6.209-19.072-18.869-58.901-23.003-77.147c-0.016,0.187-0.032,0.373-0.048,0.552c-0.478,4.822-0.754,10.545-0.875,16.754
								c-0.421,21.438,1.013,48.591,2.764,63.901c-18.926,9.978-32.049,6.323-42.521,6.598
								c-4.692-22.46-12.878-72.445-21.989-132.156c-2.083-13.633-4.216-27.761-6.355-42.195
								c-20.369-137.094-42.269-300.813-39.32-309.801c3.38-10.277,16.122-16.234,24.131-22.686
								c8.365-6.728,16.388-14.46,24.518-21.213l63.942-26.09l2.634-1.078c9.111,4.256,19.518,7.417,28.644,9.905
								c8.09,2.196,15.189,3.841,19.543,5.253c13.365,4.319,29.454,7.286,40.648,16.818c9.937,8.453,13.244,21.219,13.769,35.241
								c0.187,4.88,0.042,9.913-0.291,14.971c-0.842,13.154-2.861,26.48-3.185,37.713c-0.122,4.215-0.041,9.345,0.211,15.254
								c0.236,5.674,0.641,12.078,1.174,19.088c2.156,28.133,6.567,66.195,11.827,107.314c1.466,11.428,3.006,23.101,4.579,34.861
								C951.308,610.087,969.343,727.436,966.805,731.326z"/>
							<g>
								<path style="fill:#FFA471;" d="M834.644,213.091c-10.002,14.465-19.885,29.432-29.898,44.367
									c-13.181,19.657-26.6,39.265-40.862,57.62c-6.695-16.205-11.322-34.673-14.457-53.289
									c-1.185-7.038-2.157-14.101-2.948-21.073c-0.915-8.015-1.58-15.908-2.051-23.504l42.049-44.343l14.256-15.034
									c-0.742,1.658-1.065,3.783-1.065,6.168c0.005,3.798,0.842,8.267,2.134,12.602c1.76,5.937,4.373,11.629,6.864,15.039
									C815.225,200.601,826.141,206.998,834.644,213.091z"/>
								<path style="fill:#E07F4F;" d="M782.05,244.595c-15.181,14.112-27.26,8.144-35.57-3.88
									c-0.915-8.015-1.58-15.908-2.051-23.504l42.049-44.343l13.191-8.866l0.04-0.025c1.019,2.395,1.782,6.884,2.094,12.627
									C802.848,195.814,798.799,229.03,782.05,244.595z"/>
							</g>
							<path style="fill:#006B6B;" d="M806.138,257.028c-10.77,21.073-21.783,42.129-33.778,62.04
								c-8.56-15.302-15.335-33.095-20.643-51.212c9.715,1.325,22.147,0.012,28.867-1.171
								C789.987,265.025,798.101,261.096,806.138,257.028z"/>
							<path style="fill:#EAE1DF;" d="M848.607,212.817c-0.083,0.314-0.168,0.633-0.249,0.958
								c-3.008,11.594-7.252,28.723-11.346,39.812c-2.086,5.655-3.687,14.134-9.531,15.88c-4.788,1.434-12.308-3.373-17.263-3.258
								c0.801,11.812,12.182,14.532,3.712,25.725c-7.084,9.361-34.269,27.975-37.028,39.378
								c-8.987,37.151,13.358,223.639,35.876,340.53c-0.474,4.824-0.753,10.547-0.871,16.752
								c-33.211-127.682-47.63-341.678-43.635-357.988c5.568-22.687,42.676-108.06,48.812-125.654
								c0.674-1.917,0.975-3.029,0.829-3.171L848.607,212.817z"/>
							<path style="fill:#EAE1DF;" d="M766.017,303.764c-3.164-7.535-6.323-15.4-8.728-23.258
								c-3.821-12.492-11.818-33.527-9.961-46.548l-9.275-6.652c-5.569,16.499-11.833,36.501-12.925,52.877
								c3.43-0.946,7.083-0.926,10.558-1.181c-3.214,5.302-7.711,9.868-6.953,15.638c0.705,5.379,6.252,13.242,10.342,17.259
								c8.599,8.448,22.565,12.55,33.84,13.035C774.809,319.209,768.271,309.134,766.017,303.764z"/>
							<g>
								<path style="fill:#2A0905;" d="M727.959,99.093l-23.822-2.663c-31.449,1.4-7.482,45.104,2.477,60.438
									C705.796,134.642,713.895,116.313,727.959,99.093z"/>
								<path style="fill:#FFA471;" d="M801.196,155.763c0.177-21.099,0.366-47.469-12.192-66.112
									c-11.609-17.241-43.955-20.754-61.188-11.462c-5.68,3.061-15.493,10.402-17.534,16.689l-7.213,11.128
									c-0.237,10.299-3.013,24.026-3.177,35.451c-0.166,11.507,2.728,20.65,5.246,31.334
									c5.037,21.359,10.613,38.235,24.457,56.277c16.277,21.214,38.789,5.282,50.759-7.007
									C803.951,197.845,801,178.614,801.196,155.763z"/>
								<g>
									<path style="fill:#EEEEEE;" d="M774.618,158.118c-0.901,3.279-3.44,5.809-6.554,7.405
										c-6.79,3.485-16.272,2.537-17.284-4.765c0,0,2.967-6.125,8.719-6.825c0.865-0.105,1.722-0.201,2.562-0.275
										C766.549,153.279,770.662,153.697,774.618,158.118z"/>
									<path style="fill:#20181A;" d="M762.061,153.657c-0.839,0.075-1.697,0.17-2.562,0.275c-3.125,0.38-5.423,2.359-6.877,4.09
										c0.839,2.146,0.856,4.682,0.144,6.859c3.352,3.375,10.108,3.306,15.297,0.641c-0.377-1.739-0.98-3.559-1.811-5.379
										C765.093,157.604,763.633,155.39,762.061,153.657z"/>
									<path style="fill:#E07F4F;" d="M758.89,150.631c-5.755,0.701-8.106,10.123-8.106,10.123
										c3.831,5.791,21.312,0.882,23.836-2.636C769.919,152.866,764.386,149.96,758.89,150.631z"/>
								</g>
								<g>
									<path style="fill:#EEEEEE;" d="M726.281,163.536c-0.299,3.143-2.097,5.556-4.515,7.07
										c-5.278,3.302-13.469,2.33-15.366-4.687c0,0,1.648-5.861,6.437-6.497c0.72-0.095,1.436-0.182,2.139-0.247
										C718.735,158.838,722.292,159.267,726.281,163.536z"/>
									<path style="fill:#20181A;" d="M714.976,159.174c-0.703,0.065-1.419,0.153-2.139,0.247
										c-2.599,0.345-4.273,2.232-5.26,3.884c1.016,2.067,1.393,4.502,1.095,6.586c3.33,3.261,9.06,3.237,13.094,0.714
										c-0.572-1.674-1.343-3.425-2.305-5.176C718.114,162.984,716.557,160.848,714.976,159.174z"/>
									<path style="fill:#E07F4F;" d="M711.851,156.248c-4.791,0.638-5.451,9.667-5.451,9.667c4.08,5.583,18.237,0.98,19.884-2.38
										C721.541,158.464,716.424,155.64,711.851,156.248z"/>
								</g>
								<path style="fill:#1B0C11;" d="M747.62,151.146c4.572-1.413,9.207-2.573,13.966-3.058c4.665-0.473,9.382-0.613,14.059-0.234
									c0.195-2.037,0.393-4.074,0.596-6.113c-5.596-1.671-19.85-2.173-24.276-0.982c-5.797,1.56-5.602,4.731-4.714,10.514
									C747.376,151.23,747.499,151.183,747.62,151.146z"/>
								<path style="fill:#1B0C11;" d="M722.258,153.007c-3.46-0.877-6.954-1.495-10.499-1.426
									c-3.471,0.065-6.964,0.469-10.389,1.386c-0.271-2.001-0.544-4.001-0.822-5.999c4.029-2.305,14.52-4.445,17.857-3.772
									c4.379,0.882,4.429,4.052,4.133,9.895C722.446,153.062,722.352,153.03,722.258,153.007z"/>
								<path style="fill:#E07F4F;" d="M735.752,196.361c3.118-10.076,0.722-29.808,0.722-29.808
									c-0.719,6.07-1.328,12.128-2.623,18.082c-1.125,5.179-3.472,9.986-5.072,15.101c5.753,3.093,18.612,1.184,22.017-4.218
									C747.889,194.676,740.772,194.411,735.752,196.361z"/>
								<path style="fill:#E07F4F;" d="M723.015,205.609c0,0,0.128,0.134,0.37,0.385c0.245,0.242,0.609,0.586,1.106,0.979
									c0.496,0.393,1.131,0.82,1.879,1.258c0.755,0.429,1.639,0.853,2.623,1.247c1.969,0.788,4.377,1.452,6.966,1.767
									c0.646,0.071,1.303,0.133,1.961,0.151c0.668,0.024,1.284-0.004,2.028-0.037c1.316-0.092,2.743-0.263,4.114-0.53
									c1.382-0.25,2.755-0.59,4.092-0.98c1.337-0.396,2.635-0.841,3.872-1.33c2.473-0.977,4.696-2.118,6.483-3.283
									c0.892-0.581,1.684-1.161,2.35-1.725c0.659-0.566,1.201-1.106,1.626-1.576c0.408-0.48,0.725-0.876,0.915-1.162
									c0.195-0.29,0.299-0.443,0.299-0.443s-0.05,0.181-0.145,0.517c-0.109,0.333-0.279,0.826-0.584,1.416
									c-0.308,0.585-0.711,1.297-1.291,2.025c-0.568,0.734-1.271,1.523-2.117,2.297c-1.684,1.555-3.908,3.076-6.473,4.331
									c-1.281,0.629-2.646,1.197-4.071,1.674c-1.421,0.485-2.905,0.863-4.41,1.154c-1.52,0.274-3.018,0.456-4.591,0.493
									c-0.702,0.012-1.523,0.012-2.272-0.068c-0.756-0.071-1.493-0.175-2.207-0.323c-1.428-0.284-2.765-0.699-3.994-1.181
									c-1.228-0.487-2.346-1.048-3.327-1.648c-0.983-0.597-1.822-1.245-2.517-1.867c-0.699-0.616-1.231-1.237-1.634-1.765
									c-0.407-0.521-0.649-0.992-0.823-1.294C723.094,205.777,723.015,205.609,723.015,205.609z"/>
								<path style="fill:#521A0D;" d="M797.945,162.548c-2.569-10.796-15.559-41.411-19.901-50.784
									c-5.601-12.089-14.379-1.959-22.603,1.592c-53.539,23.104-62.852-4.762-64.975-14.722
									c-1.335-6.268,4.212-13.008,10.897-18.57c5.073-4.218,10.793-7.76,14.664-9.905c24.646-13.656,56.659-12.903,78.102-4.697
									c17.957,6.871,25.742,19.662,27.702,33.751C825.896,128.348,805.098,163.054,797.945,162.548z"/>
								<path style="fill:#2A0905;" d="M797.945,162.548c-2.569-10.796-15.559-41.411-19.901-50.784
									c-5.601-12.089-14.379-1.959-22.603,1.592c-53.539,23.104-62.852-4.762-64.975-14.722
									c-1.335-6.268,4.212-13.008,10.897-18.57c0.51,2.692,1.797,5.641,4.175,9.06c7.864,11.323,21.949,10.695,34.438,7.036
									c10.797-3.158,19.879-9.604,31.448-7.708c11.102,1.818,18.275,7.13,25.118,15.809c1.146-5.398-1.121-11.246-3.964-15.901
									c6.217,1.397,15.011,7.258,16.909,13.238c2.479-3.238,2.677-8.468,1.512-12.521c3.796,4.412,6.044,9.125,7.736,14.715
									c1.183-1.45,2.202-2.981,3.097-4.578C825.896,128.348,805.098,163.054,797.945,162.548z"/>
								<g>
									<path style="fill:#FFA471;" d="M796.145,155.592c-0.942,2.238-1.984,9.502-1.984,9.502
										c-3.75,6.891-0.749,21.625,9.401,19.117c6.065-1.498,11.303-12.595,13.499-17.949
										C825.957,144.557,803.531,138.009,796.145,155.592z"/>
									<path style="fill:#E07F4F;" d="M798.507,163.12c3.684-2.451,6.881,1.223,5.825,5.177c-0.867,3.253-8.029,2.719-8.029,2.719
										c2.694,3.994,10.328,4.492,13.224-1.669c2.196-4.666-1.477-15.137-7.686-10.604c0.584-4.48,8.307-10.606,11.918-5.708
										C808.039,143.826,795.56,154.475,798.507,163.12z"/>
								</g>
							</g>
							<path style="fill:#EAE1DF;" d="M792.05,365.694c0.473,3.984-1.423,7.484-4.234,7.818c-2.813,0.334-5.478-2.625-5.951-6.608
								c-0.473-3.985,1.423-7.486,4.236-7.821C788.913,358.75,791.578,361.708,792.05,365.694z"/>
							<path style="fill:#EAE1DF;" d="M808.208,501.675c0.474,3.984-1.423,7.485-4.234,7.819c-2.815,0.334-5.478-2.625-5.951-6.61
								c-0.473-3.984,1.423-7.485,4.237-7.818C805.071,494.732,807.736,497.691,808.208,501.675z"/>
							<path style="fill:#EAE1DF;" d="M821.32,612.014c0.474,3.985-1.423,7.485-4.235,7.819c-2.815,0.334-5.477-2.623-5.951-6.608
								c-0.474-3.986,1.423-7.486,4.234-7.821C818.18,605.07,820.846,608.029,821.32,612.014z"/>
							<g>
								<path style="fill:#EAE1DF;" d="M870.802,574.159c0.432,0.041,0.872,0.075,1.31,0.112c-0.01-0.624-0.002-1.233,0.035-1.819
									L870.802,574.159z"/>
								<path style="fill:#EAE1DF;" d="M872.111,574.271c0.25,16.533,15.846,45.695,36.401,46.781
									c27.579,1.457,22.942-37.091,22.818-55.477C914.945,573.73,891.071,575.83,872.111,574.271z"/>
							</g>
							<g>
								<path style="fill:#EAE1DF;" d="M755.227,580.314c0.087,12.525,2.269,34.404-5.067,46.622
									c-2.084-13.63-4.213-27.764-6.355-42.194C747.875,583.527,751.722,582.06,755.227,580.314z"/>
							</g>
						</g>
						<g>
							<path style="fill:#393333;" d="M735.631,267.272c0.263-3.88,1.503-7.691,2.932-11.283c1.687-4.237,2.509-6.953,4.878-10.845
								c1.337-2.197,2.329-4.031,3.931-6.058c0.184,2.036,1.364,7.252,0.383,10.04c-0.643,0.964-3.904,4.528-5.445,8.337
								c-1.327,3.282-2.441,6.723-2.679,10.275C739.453,270.324,735.456,269.858,735.631,267.272z"/>
							<g>
								<g>
									<g>
										<path style="fill:#E6EBED;" d="M751.308,352.72c4.982,2.245,8.122,1.354,9.953,0.057
											c4.183-2.952,5.632-10.395,4.19-21.529c-0.875-6.737-3.618-16.821-5.62-24.186c-0.978-3.598-1.99-7.319-2.006-7.966
											c0.003,0.189-0.117,0.557-0.462,0.747l-1.029-2.002c-0.839,0.459-0.575,1.531-0.049,3.668
											c0.377,1.503,0.944,3.594,1.604,6.011c1.982,7.293,4.7,17.284,5.55,23.849c1.312,10.119,0.111,17.05-3.383,19.519
											c-2.452,1.731-6.152,1.186-10.703-1.589l-0.872,1.918C749.485,351.824,750.427,352.322,751.308,352.72z"/>
										<path style="fill:#171111;" d="M743.395,347.964c-0.611,1.967,0.98,4.505,3.556,5.669
											c2.577,1.161,5.161,0.504,5.775-1.465c0.613-1.966-0.978-4.508-3.556-5.668
											C746.595,345.34,744.011,345.996,743.395,347.964z"/>
									</g>
									<g>
										<path style="fill:#E6EBED;" d="M731.364,350.092c-4.884,1.625-8.079,0.331-9.983-1.201
											c-4.35-3.496-6.185-11.144-5.311-22.13c0.529-6.646,2.761-16.419,4.389-23.551c0.795-3.486,1.62-7.093,1.601-7.741
											c0.008,0.191,0.148,0.576,0.502,0.809l0.929-1.876c0.869,0.564,0.657,1.605,0.239,3.682
											c-0.301,1.462-0.762,3.483-1.297,5.829c-1.615,7.066-3.826,16.747-4.339,23.223c-0.795,9.985,0.766,17.096,4.398,20.011
											c2.549,2.052,6.234,1.97,10.657-0.233l0.972,2.024C733.15,349.427,732.23,349.809,731.364,350.092z"/>
										<path style="fill:#171111;" d="M739.058,346.324c0.716,2.054-0.751,4.397-3.276,5.236c-2.525,0.839-5.153-0.147-5.868-2.2
											c-0.717-2.057,0.75-4.394,3.272-5.236C735.712,343.287,738.338,344.271,739.058,346.324z"/>
									</g>
									<g>
										<path style="fill:#393333;" d="M718.813,304.523c0.135,0.038,0.29,0.025,0.399,0.119c2.236,1.871,3.09,1.482,4.596,2.546
											c0.429-2.316,0.97-4.418,1.603-6.312c6.083-18.09,20.906-17.194,28.926-0.085c1.149,2.449,2.158,5.229,2.981,8.332
											c2.468-0.707,1.999-0.501,4.499-1.116c-2.435-12.128-14.723-41.425-22.977-43.228
											C728.659,262.557,722.155,292.806,718.813,304.523z"/>
									</g>
									<g style="opacity:0.5;">
										<g>
											<path style="fill:#006695;" d="M725.411,300.876c6.083-18.09,20.906-17.194,28.926-0.085
												c-3.092-10.472-11.082-30.152-15.885-31.2C731.623,268.094,725.514,297.578,725.411,300.876z"/>
										</g>
										<path style="fill:#FF9800;" d="M725.295,304.546c-0.049,0.091-0.075,0.205-0.079,0.334
											C725.179,307.2,725.226,306.451,725.295,304.546z"/>
									</g>
								</g>
							</g>
						</g>
						<g>
							<g>
								<path style="fill:#006695;" d="M807.763,304.09c3.025,9.465,13.152,14.68,22.615,11.655
									c9.462-3.027,14.682-13.149,11.655-22.617c-0.194-0.608-0.417-1.195-0.669-1.767c-3.657-8.331-13.09-12.722-21.944-9.89
									c-8.857,2.834-13.995,11.882-12.141,20.787C807.408,302.871,807.566,303.482,807.763,304.09z"/>
								<path style="fill:#FFFFFF;" d="M807.279,302.257c3.657,8.334,13.094,12.726,21.95,9.894
									c8.853-2.833,13.992-11.882,12.135-20.791c-3.657-8.331-13.09-12.722-21.944-9.89
									C810.563,284.304,805.425,293.352,807.279,302.257z"/>
								<g>
									<path style="fill:#584F4F;" d="M810.783,298.549c2.01,6.288,8.738,9.754,15.028,7.745
										c6.288-2.013,9.758-8.742,7.744-15.029c-2.011-6.289-8.737-9.756-15.026-7.744
										C812.237,285.529,808.773,292.256,810.783,298.549z"/>
									<path style="fill:#393333;" d="M815.66,296.991c1.151,3.594,4.997,5.576,8.591,4.425c3.596-1.148,5.579-4.997,4.428-8.591
										c-1.148-3.596-4.996-5.579-8.591-4.427C816.493,289.546,814.508,293.392,815.66,296.991z"/>
								</g>
							</g>
							<path style="fill:#393333;" d="M818.35,208.726c-0.48-0.819-1.058-1.609-1.7-2.377c-0.062-2.175-0.157-4.352-0.263-6.528
								c1.635,1.104,3.364,2.538,5.154,4.456c4.779,5.116,5.891,12.643,6.842,19.502c2.142,15.449-0.705,31.344-2.432,46.688
								c-0.98,8.723-1.811,17.536-1.167,26.312c0.239,3.265-4.839,3.471-5.077,0.203c-1.132-15.446,1.878-30.965,3.391-46.286
								C824.457,236.999,825.599,221.093,818.35,208.726z"/>
						</g>
					</g>
					<g>
						<g>
							<path style="fill:#FFA471;" d="M692.895,490.591c-0.145,1.54-0.706,2.861-2.221,3.72c-3.689,2.084-9.823,0.973-12.977,3.534
								c-3.008,2.448-9.936,4.944-11.793,8.259c-4.279,7.635-10.496,10.529-18.414,12.839c-5.562,1.629-23.458-6.355-24.049,3.08
								c10.212,6.914-5.01,12.54-8.422,3.348c-0.187-0.479-0.332-1.005-0.438-1.565c-0.46-2.383-1.094-6.646-0.931-10.229
								c0.081-1.774,0.356-3.387,0.948-4.522c1.296-2.496,5.949-4.255,8.251-6.492c-1.961,0.632-6.752,2.059-12.686,3.623
								c-1.532,0.405-3.136,0.819-4.79,1.232c-0.447,0.105-0.907,0.218-1.362,0.333c-1.143,0.275-2.31,0.551-3.478,0.826
								c-13.714,3.161-28.709,5.495-30.377,1.256c-0.033-0.048-0.049-0.096-0.065-0.154c-0.584-5.308,34.796-15.375,43.881-17.881
								c12.856-3.533,26.699-6.005,38.954-11.055l34.796-10.026c1.712,2.861,5.034,9.402,4.864,12.847
								C692.474,485.833,693.098,488.418,692.895,490.591z"/>
							<path style="fill:#FFA471;" d="M632.875,503.746c-3.962,5.236-9.88,5.479-12.823,10.311
								c-0.284,0.446-0.535,0.932-0.753,1.466c-1.403,3.428-2.075,7.78-4.28,9.848c-1.499,1.419-3.711,1.775-7.367,0.048
								c-2.465-1.168-3.559-3.031-3.899-5.244c-0.52-3.25,0.576-7.271,1.273-10.999c0.048-0.244,0.088-0.479,0.13-0.713
								c0.065-0.365,0.138-0.713,0.218-1.046c0.429-1.84,1.086-3.201,1.921-4.28c2.731-3.558,7.368-3.996,12.018-7.651
								L632.875,503.746z"/>
							<path style="fill:#FFA471;" d="M613.415,509.638c-0.211,0.811-0.47,1.783-0.795,2.805c-1.483,4.708-4.247,10.593-8.866,7.732
								c-0.681-0.414-1.395-1.013-2.148-1.832c-2.196-2.382-2.042-6.079-1.071-9.766c0.618-2.366,1.566-4.725,2.449-6.743
								c0.356-0.803,0.689-1.54,0.995-2.213l3.316,3.517l2.868,3.047l1.865,1.986l0.081,0.081L613.415,509.638z"/>
							<path style="fill:#E07F4F;" d="M692.895,490.591c-0.145,1.54-0.706,2.861-2.221,3.72c-3.689,2.084-9.823,0.973-12.977,3.534
								c-3.008,2.448-9.936,4.944-11.793,8.259c-4.279,7.635-10.496,10.529-18.414,12.839c-5.562,1.629-23.458-6.355-24.049,3.08
								c10.212,6.914-5.01,12.54-8.422,3.348c-1.499,1.419-3.711,1.775-7.367,0.048c-2.465-1.168-3.559-3.031-3.899-5.244
								c-0.681-0.414-1.395-1.013-2.148-1.832c-2.196-2.382-2.042-6.079-1.071-9.766c-13.714,3.161-28.709,5.495-30.377,1.256
								c9.402,1.905,25.734-7.4,32.818-8.169c0,0.055,0.008,0.113,0.008,0.17c0.154,2.56,0.429,4.563,1.029,5.917
								c0.267,0.608,0.6,1.078,1.014,1.427c1.312,1.086,3.46,0.827,7.003-1.005c0.031-0.016,0.072-0.041,0.104-0.056
								c-0.008,0.048-0.016,0.096-0.024,0.138c-0.284,1.839-0.065,3.21,0.51,4.19c0.267,0.461,0.625,0.843,1.031,1.134
								c1.572,1.16,4.043,1.151,6.402,0.48c1.945-0.544,3.818-1.54,5.05-2.699c0.898,5.422,14.532,4.23,19.024,3.728
								c7.326-0.818,12.311-5.941,17.831-10.926C670.897,496.07,681.8,493.29,692.895,490.591z"/>
						</g>
						<g>
							<path style="fill:#EAE1DF;" d="M919.049,339.03c-21.835,42.407-75.541,131.354-115.476,135.083l65.653-119.092
								c10.952-16.306,29.373-58.366,49.572-65.701c0.357-0.129,1.589-1.418,3.226-3.257c-0.842,13.154-2.861,26.48-3.185,37.713
								C918.716,327.991,918.797,333.121,919.049,339.03z"/>
							<g>
								<path style="fill:#FFFFFF;" d="M893.84,247.99c-18.109,3.442-27.561,20.897-37.643,35.457
									c-2.281,3.297-4.593,6.439-7.045,9.236c0,0-48.495,118.241-67.092,124.048c-33.021,10.309-67.991,32.633-98.888,48.849
									c-8.548,4.488-16.775,8.487-24.566,11.653c0.81,2.801,12.168,25.543,12.534,26.504
									c35.863-0.962,70.098-5.179,101.867-15.144c18.869-5.912,37.912-13.384,52.808-26.776
									c14.007-12.595,22.152-27.268,34.009-42.274c28.931-36.582,50.212-87.514,60.291-131.839
									C924.766,267.288,919.381,243.145,893.84,247.99z"/>
								<path style="fill:#EAE1DF;" d="M856.197,283.447c-2.907,8.8-9.621,22.029-12.238,28.091
									c-5.637,13.046-10.534,27.059-15.609,39.663c-9.543,23.703-21.796,45.338-32.017,67.584
									c7.41,3.231,14.304,9.667,17.805,17.3c-8.914-1.344-15.617-9.374-24.099-11.239c3.071,6.584,5.924,13.91,5.434,21.165
									c-4.313-6.009-9.761-11.618-15.58-15.94c-32.301,11.586-65.537,21.504-96.72,35.509
									c30.897-16.216,65.866-38.54,98.888-48.849c18.596-5.807,67.092-124.048,67.092-124.048
									C851.604,289.886,853.915,286.743,856.197,283.447z"/>
							</g>
						</g>
					</g>
				</g>
				<g>
					<g>
						<path style="fill:#FFA471;" d="M409.283,589.369c0.035,0.813,0.212,1.7,0.562,2.668c2.586,7.162,12.486,4.063,19.925,3.742
							c13.815-0.595,31.783-0.067,44.884-2.031c2.389-0.362,4.605-0.796,6.618-1.339l1.954-5.868l6.185-18.587
							c-2.15-0.087-4.404-0.507-6.736-1.122c-10.1-2.656-21.672-9.032-32.744-8.625c-12.401,0.466-21.527,12.125-31.025,19.957
							C414.655,581.664,409.081,584.2,409.283,589.369z"/>
						<path style="fill:#FFA471;" d="M471.199,566.59c0.743,5.94,0.949,13.294,1.944,19.988c0.367,2.516,0.85,4.951,1.512,7.169
							c0.253,0.832,0.536,1.635,0.837,2.397c27.604,0.917,53.67,4.912,80.643,6.682c13.88,0.902,22.106,0.867,41.972,0.249
							c10.331-0.316,42.054-8.221,48.378-27.96c0,0,0.344-1.017,0.617-2.718c1.061-6.316,1.307-22.017-19.809-29.431
							c-27.138-9.534-88.085,22.821-144.618,23.865C478.824,566.908,475.006,566.833,471.199,566.59z"/>
						<path style="fill:#E07F4F;" d="M409.283,589.369c0.035,0.813,0.212,1.7,0.562,2.668c2.586,7.162,12.486,4.063,19.925,3.742
							c13.815-0.595,31.783-0.067,44.884-2.031c0.253,0.832,0.536,1.635,0.837,2.397c27.604,0.917,53.67,4.912,80.643,6.682
							c13.88,0.902,22.106,0.867,41.972,0.249c10.331-0.316,42.054-8.221,48.378-27.96c0,0,0.344-1.017,0.617-2.718
							c-13.955,22.013-106.753,24.271-121.727,19.193c-13.562-4.592-27.088-4.864-42.149-5.05c-0.576-0.004-1.154-0.01-1.74-0.015
							c-2.773-0.029-5.555-0.009-8.344,0.052c-13.73,0.283-27.579,1.495-41.245,2.083
							C426.463,588.895,416.787,588.479,409.283,589.369z"/>
					</g>
					<g>
						<g>
							<g>
								<path style="fill:#FFA471;" d="M342.009,458.405c-1.507-9.889-11.306-24.146-15.473-34.61
									c-4.401-11.072,0.769-27.648-9.111-33.807c-12.531-7.821-19.769-26.374-23.408-23.245c-0.04,0.031-0.073,0.056-0.105,0.097
									c-0.413,0.364-0.753,0.778-1.029,1.224c0,0,0,0,0,0.008c-4.621,7.359,7.926,24.373,9.807,28.709
									c-5.496,2.732-22.038-9.386-29.397-14.072c-0.584-0.381-1.111-0.706-1.566-0.972c-7.415-4.345-17.11-22.946-22.727-23.238
									c-0.413-0.024-0.811,0.057-1.174,0.235c-4.71,2.918,13.057,27.737,13.852,30.047c-2.109-4.15-19.51-30.857-23.993-28.247
									c-0.048,0.024-0.088,0.048-0.13,0.081c-1.863,1.403-1.904,3.785-0.883,6.622c1.128,3.144,3.559,6.849,6.258,10.423
									c-4.377-5.106-8.469-9.451-8.843-8.47c-0.348,0.228-0.559,0.583-0.64,1.061c-0.332,1.881,1.24,5.521,3.461,9.541
									c-0.673-0.381-1.273-0.381-1.743,0.137c-0.024,0.057-0.041,0.105-0.065,0.162c-1.767,5.196,5.39,17.507,13.893,29.187
									c0.462,0.633,0.922,1.264,1.393,1.897c8.001,10.74,16.802,20.555,20.393,23.295c0.802,0.608,2.083,1.297,3.712,2.067
									c4.418,2.084,11.332,4.742,17.873,7.96c6.541,3.218,12.716,6.978,15.659,11.291c2.544,3.728,4.23,12.41,6.038,20.053
									c1.646,6.987,3.38,13.114,5.941,13.803l2.577-3.477l19.582-26.374C342.131,459.337,342.075,458.866,342.009,458.405z
									 M247.064,395.808c0.171,0.26,0.317,0.486,0.43,0.665C247.396,396.358,247.25,396.132,247.064,395.808z M253.256,390.255
									c0.244,0.324,0.447,0.616,0.6,0.852c-0.179-0.244-0.471-0.625-0.844-1.119c0-0.008-0.008-0.008-0.008-0.016
									c-0.26-0.332-0.559-0.713-0.899-1.151C252.551,389.356,252.94,389.843,253.256,390.255z"/>
								<path style="fill:#E07F4F;" d="M309.321,437.347c-12.207-8.47-8.179-23.691-10.35-35.598
									c-8.196-4.661-11.072-10.877-20.126-8.243c-7.668,2.245-25.378,10.845-19.452,6.485
									c5.081-3.745,18.017-10.618,18.642-14.589c7.36,4.685,19.16,14.111,24.657,11.38c-1.881-4.336-14.428-21.35-9.807-28.709
									c0.333,1.735,0.769,3.461,1.336,5.171c2.48,7.473,8.502,14.354,10.562,21.884c1.888,6.905-2.003,12.944-1.621,21.073
									C303.55,424.403,306.881,430.012,309.321,437.347z"/>
							</g>
						</g>
					</g>
					<g>
						<g>
							<g>
								<g>
									<path style="fill:#3A4950;" d="M247.04,592.104c0,3.844,3.118,6.964,6.962,6.964h278.59c3.845,0,6.965-3.12,6.965-6.964
										l0,0c0-3.848-3.12-6.966-6.965-6.966h-278.59C250.158,585.138,247.04,588.257,247.04,592.104L247.04,592.104z"/>
									<g>
										<path style="fill:#182023;" d="M246.166,589.526c0.785,5.272,5.559,9.542,10.662,9.542h200.588
											c5.105,0,8.612-4.27,7.83-9.542L442.068,433.26c-0.782-5.272-5.556-9.544-10.662-9.544h-200.59
											c-5.1,0-8.608,4.272-7.828,9.544L246.166,589.526z"/>
										<path style="fill:#3A4950;" d="M237.654,589.526c0.779,5.272,5.552,9.542,10.659,9.542h200.588
											c5.107,0,8.612-4.27,7.83-9.542L433.548,433.26c-0.78-5.272-5.553-9.544-10.659-9.544H222.303
											c-5.108,0-8.613,4.272-7.83,9.544L237.654,589.526z"/>
									</g>
								</g>
							</g>
							<g>
								<g>
									
										<rect x="242.375" y="521.5" transform="matrix(0.003 -1 1 0.003 -364.1641 1376.4814)" style="fill:#9EBDBB;" width="531.708" height="698.74"/>
									
										<rect x="481.042" y="760.884" transform="matrix(0.003 -1 1 0.003 -132.5175 1615.8423)" style="fill:#425A58;" width="526.107" height="226.991"/>
								</g>
								<g>
									<rect x="132.955" y="597.759" style="fill:#9EBDBB;" width="750.549" height="32.421"/>
									<rect x="603.062" y="597.759" style="fill:#425A58;" width="280.443" height="32.421"/>
								</g>
							</g>
						</g>
						<g>
							<g>
								<rect x="180.1" y="656.859" style="fill:#425A58;" width="47.125" height="34.724"/>
								<rect x="243.347" y="656.859" style="fill:#425A58;" width="47.124" height="34.724"/>
								<rect x="306.593" y="656.859" style="fill:#425A58;" width="47.127" height="34.724"/>
								<rect x="369.839" y="656.859" style="fill:#425A58;" width="47.126" height="34.724"/>
								<rect x="433.088" y="656.859" style="fill:#425A58;" width="47.124" height="34.724"/>
								<rect x="496.334" y="656.859" style="fill:#425A58;" width="47.125" height="34.724"/>
								<rect x="559.581" y="656.859" style="fill:#425A58;" width="47.125" height="34.724"/>
							</g>
							<g>
								<rect x="180.1" y="711.424" style="fill:#425A58;" width="47.125" height="34.724"/>
								<rect x="243.347" y="711.424" style="fill:#425A58;" width="47.124" height="34.724"/>
								<rect x="306.593" y="711.424" style="fill:#425A58;" width="47.127" height="34.724"/>
								<rect x="369.839" y="711.424" style="fill:#425A58;" width="47.126" height="34.724"/>
								<rect x="433.088" y="711.424" style="fill:#425A58;" width="47.124" height="34.724"/>
								<rect x="496.334" y="711.424" style="fill:#425A58;" width="47.125" height="34.724"/>
								<rect x="559.581" y="711.424" style="fill:#425A58;" width="47.125" height="34.724"/>
							</g>
							<g>
								<rect x="180.1" y="765.991" style="fill:#425A58;" width="47.125" height="34.724"/>
								<rect x="243.347" y="765.991" style="fill:#425A58;" width="47.124" height="34.724"/>
								<rect x="306.593" y="765.991" style="fill:#425A58;" width="47.127" height="34.724"/>
								<rect x="369.839" y="765.991" style="fill:#425A58;" width="47.126" height="34.724"/>
								<rect x="433.088" y="765.991" style="fill:#425A58;" width="47.124" height="34.724"/>
								<rect x="496.334" y="765.991" style="fill:#425A58;" width="47.125" height="34.724"/>
								<rect x="559.581" y="765.991" style="fill:#425A58;" width="47.125" height="34.724"/>
							</g>
							<g>
								<rect x="180.1" y="820.556" style="fill:#425A58;" width="47.125" height="34.725"/>
								<rect x="243.347" y="820.556" style="fill:#425A58;" width="47.124" height="34.725"/>
								<rect x="306.593" y="820.556" style="fill:#425A58;" width="47.127" height="34.725"/>
								<rect x="369.839" y="820.556" style="fill:#425A58;" width="47.126" height="34.725"/>
								<rect x="433.088" y="820.556" style="fill:#425A58;" width="47.124" height="34.725"/>
								<rect x="496.334" y="820.556" style="fill:#425A58;" width="47.125" height="34.725"/>
								<rect x="559.581" y="820.556" style="fill:#425A58;" width="47.125" height="34.725"/>
							</g>
							<g>
								<rect x="243.347" y="875.123" style="fill:#425A58;" width="47.124" height="34.724"/>
								<rect x="306.593" y="875.123" style="fill:#425A58;" width="47.127" height="34.724"/>
								<rect x="369.839" y="875.123" style="fill:#425A58;" width="47.126" height="34.724"/>
								<rect x="433.088" y="875.123" style="fill:#425A58;" width="47.124" height="34.724"/>
								<rect x="496.334" y="875.123" style="fill:#425A58;" width="47.125" height="34.724"/>
								<rect x="559.581" y="875.123" style="fill:#425A58;" width="47.125" height="34.724"/>
							</g>
							<g>
								<rect x="306.593" y="929.689" style="fill:#425A58;" width="47.127" height="34.724"/>
								<rect x="369.839" y="929.689" style="fill:#425A58;" width="47.126" height="34.724"/>
								<rect x="433.088" y="929.689" style="fill:#425A58;" width="47.124" height="34.724"/>
								<rect x="496.334" y="929.689" style="fill:#425A58;" width="47.125" height="34.724"/>
								<rect x="559.581" y="929.689" style="fill:#425A58;" width="47.125" height="34.724"/>
							</g>
							<g>
								<rect x="369.839" y="982.636" style="fill:#425A58;" width="47.126" height="34.724"/>
								<rect x="433.088" y="982.636" style="fill:#425A58;" width="47.124" height="34.724"/>
								<rect x="496.334" y="982.636" style="fill:#425A58;" width="47.125" height="34.724"/>
								<rect x="559.581" y="982.636" style="fill:#425A58;" width="47.125" height="34.724"/>
							</g>
							<g>
								<rect x="433.088" y="1037.196" style="fill:#425A58;" width="47.124" height="34.725"/>
								<rect x="496.334" y="1037.196" style="fill:#425A58;" width="47.125" height="34.725"/>
								<rect x="559.581" y="1037.196" style="fill:#425A58;" width="47.125" height="34.725"/>
							</g>
						</g>
						<rect x="160.387" y="630.109" style="opacity:0.6;fill:#425A58;" width="699.151" height="21.888"/>
					</g>
				</g>
			</g>
		</g>
	</g>
</g>
</svg>
