<?xml version="1.0" encoding="utf-8"?>
<!-- Generator: Adobe Illustrator 27.5.0, SVG Export Plug-In . SVG Version: 6.00 Build 0)  -->
<svg version="1.1" xmlns="http://www.w3.org/2000/svg" xmlns:xlink="http://www.w3.org/1999/xlink" x="0px" y="0px"
	 viewBox="0 0 500 500" style="enable-background:new 0 0 500 500;" xml:space="preserve">
<g id="BACKGROUND">
	<rect style="fill:#DEE8F7;" width="500" height="500"/>
	<rect style="opacity:0.5;fill:#DEE8F7;" width="500" height="442.937"/>
</g>
<g id="OBJECTS">
	<g>
		<defs>
			<rect id="SVGID_1_" width="500" height="500"/>
		</defs>
		<clipPath id="SVGID_00000178895433012155426020000008479928796964481940_">
			<use xlink:href="#SVGID_1_"  style="overflow:visible;"/>
		</clipPath>
		<g style="clip-path:url(#SVGID_00000178895433012155426020000008479928796964481940_);">
			<rect x="192.254" y="50.671" style="fill:#DEE8F7;" width="277.865" height="181.708"/>
			<rect x="196.875" y="56.048" style="fill:#FFFFFF;" width="268.905" height="171.405"/>
			<polygon style="opacity:0.8;fill:#DEE8F7;" points="202.434,227.453 202.434,177.723 225.884,177.723 225.884,198.169 
				244.923,198.169 244.923,154.997 264.247,154.997 264.247,185.877 276.983,185.877 276.983,109.603 335.938,109.603 
				335.938,183.651 364.783,183.651 364.783,196.425 390.255,196.425 390.255,140.611 449.105,140.611 449.105,177.723 
				465.78,177.723 465.78,227.453 			"/>
			<g>
				<rect x="196.875" y="62.193" style="fill:#DEE8F7;" width="268.905" height="7.637"/>
				<rect x="196.875" y="75.451" style="fill:#DEE8F7;" width="268.905" height="7.637"/>
				<rect x="196.875" y="88.708" style="fill:#DEE8F7;" width="268.905" height="7.637"/>
				<rect x="196.875" y="101.966" style="fill:#DEE8F7;" width="268.905" height="7.637"/>
				<rect x="196.875" y="115.224" style="fill:#DEE8F7;" width="268.905" height="7.637"/>
				<rect x="196.875" y="128.482" style="fill:#DEE8F7;" width="268.905" height="7.637"/>
				<rect x="196.875" y="141.739" style="fill:#DEE8F7;" width="268.905" height="7.637"/>
				<rect x="196.875" y="154.997" style="fill:#DEE8F7;" width="268.905" height="7.637"/>
			</g>
			<g>
				<rect x="196.875" y="62.193" style="fill:#DEE8F7;" width="268.905" height="7.637"/>
				<rect x="196.875" y="75.451" style="fill:#DEE8F7;" width="268.905" height="7.637"/>
				<rect x="196.875" y="88.708" style="fill:#DEE8F7;" width="268.905" height="7.637"/>
				<rect x="196.875" y="101.966" style="fill:#DEE8F7;" width="268.905" height="7.637"/>
				<rect x="196.875" y="115.224" style="fill:#DEE8F7;" width="268.905" height="7.637"/>
				<rect x="196.875" y="128.482" style="fill:#DEE8F7;" width="268.905" height="7.637"/>
				<rect x="196.875" y="141.739" style="fill:#DEE8F7;" width="268.905" height="7.637"/>
				<rect x="196.875" y="154.997" style="fill:#DEE8F7;" width="268.905" height="7.637"/>
			</g>
		</g>
		<g style="clip-path:url(#SVGID_00000178895433012155426020000008479928796964481940_);">
			<polygon style="fill:#FEFEFE;" points="314.493,218.486 290.464,218.486 292.809,248.904 312.147,248.904 			"/>
			<rect x="287.924" y="216.93" style="fill:#21181E;" width="29.108" height="3.567"/>
			<rect x="290.464" y="213.721" style="fill:#7AA8E8;" width="24.029" height="3.209"/>
			<polygon style="fill:#F5BB11;" points="313.156,235.816 313.724,228.448 291.232,228.448 291.8,235.816 			"/>
		</g>
		<g style="clip-path:url(#SVGID_00000178895433012155426020000008479928796964481940_);">
			<rect x="211.215" y="247.76" style="fill:#6591D8;" width="292.357" height="9.655"/>
			<g>
				<rect x="437.801" y="253.664" style="fill:#6591D8;" width="11.304" height="195.594"/>
				<rect x="266.247" y="253.664" style="fill:#6591D8;" width="11.304" height="195.594"/>
			</g>
		</g>
		<g style="clip-path:url(#SVGID_00000178895433012155426020000008479928796964481940_);">
			<path style="fill:#FFFFFF;" d="M-70.52,50.671V449.41h214.758v-3.17V50.671H-70.52z M137.899,443.07H40.688v-58.573h97.211
				V443.07z M137.899,378.158H-64.18v-59.304h202.079V378.158z M-64.18,312.514V253.21h98.528v59.303H-64.18z M137.899,312.514
				H40.688V253.21h97.211V312.514z M137.899,246.871H40.688v-0.104h-6.34v0.104H-64.18v-59.303h202.079V246.871z M-64.18,181.228
				v-59.304h98.528v59.304H-64.18z M137.899,181.228H40.688v-59.304h97.211V181.228z M137.899,57.011v58.573H-64.18V57.011H137.899z
				 M-64.18,384.497h98.528v58.573H-64.18V384.497z"/>
			<g>
				<rect x="-54.854" y="73.229" style="fill:#FFFFFF;" width="12.595" height="42.355"/>
				<rect x="-28.713" y="73.229" style="fill:#FFFFFF;" width="6.298" height="42.355"/>
				<rect x="-22.415" y="86.297" style="fill:#C9D2FC;" width="6.298" height="29.287"/>
				<rect x="-41.309" y="64.563" style="fill:#7AA8E8;" width="12.595" height="51.021"/>
				<rect x="-16.118" y="73.229" style="fill:#D48111;" width="15.72" height="42.355"/>
				<rect x="9.049" y="73.229" style="fill:#D48111;" width="7.86" height="42.355"/>
				<rect x="-0.398" y="67.101" style="fill:#F5BB11;" width="9.447" height="48.483"/>
			</g>
			<g>
				<rect x="66.136" y="138.873" style="fill:#FFFFFF;" width="12.595" height="42.355"/>
				<rect x="92.277" y="138.873" style="fill:#FFFFFF;" width="6.298" height="42.355"/>
				<rect x="98.575" y="151.941" style="fill:#C9D2FC;" width="6.298" height="29.287"/>
				<rect x="79.682" y="130.207" style="fill:#7AA8E8;" width="12.595" height="51.021"/>
				<rect x="104.873" y="138.873" style="fill:#F5BB11;" width="15.72" height="42.355"/>
				<rect x="130.039" y="138.873" style="fill:#D48111;" width="7.86" height="42.355"/>
				<rect x="120.592" y="132.745" style="fill:#7AA8E8;" width="9.447" height="48.483"/>
			</g>
			<g>
				<rect x="-64.18" y="270.159" style="fill:#FFFFFF;" width="12.595" height="42.355"/>
				<rect x="-38.038" y="270.159" style="fill:#FFFFFF;" width="6.298" height="42.355"/>
				<rect x="-31.741" y="283.228" style="fill:#C9D2FC;" width="6.298" height="29.286"/>
				<rect x="-50.634" y="261.493" style="fill:#7AA8E8;" width="12.595" height="51.021"/>
				<rect x="-25.443" y="270.159" style="fill:#F5BB11;" width="15.72" height="42.355"/>
				<rect x="-0.276" y="270.159" style="fill:#D48111;" width="7.86" height="42.355"/>
				<rect x="-9.723" y="264.031" style="fill:#7AA8E8;" width="9.446" height="48.482"/>
			</g>
			<g>
				<rect x="-43.12" y="335.429" style="fill:#FFFFFF;" width="12.595" height="42.355"/>
				<rect x="-16.979" y="335.429" style="fill:#FFFFFF;" width="6.298" height="42.355"/>
				<rect x="-10.681" y="348.497" style="fill:#C9D2FC;" width="6.298" height="29.286"/>
				<rect x="-29.574" y="326.763" style="fill:#7AA8E8;" width="12.595" height="51.02"/>
				<rect x="-4.383" y="335.429" style="fill:#D48111;" width="15.72" height="42.355"/>
				<rect x="20.783" y="335.429" style="fill:#D48111;" width="7.86" height="42.355"/>
				<rect x="11.337" y="329.301" style="fill:#7AA8E8;" width="9.447" height="48.482"/>
			</g>
			<g>
				<rect x="-31.556" y="204.412" style="fill:#FFFFFF;" width="12.595" height="42.355"/>
				<rect x="-5.415" y="204.412" style="fill:#FFFFFF;" width="6.298" height="42.355"/>
				<rect x="0.883" y="217.481" style="fill:#C9D2FC;" width="6.298" height="29.287"/>
				<rect x="-18.01" y="195.747" style="fill:#7AA8E8;" width="12.595" height="51.021"/>
				<rect x="7.181" y="204.412" style="fill:#F5BB11;" width="15.72" height="42.355"/>
				<rect x="32.347" y="204.412" style="fill:#D48111;" width="7.86" height="42.355"/>
				<rect x="22.901" y="198.285" style="fill:#7AA8E8;" width="9.447" height="48.483"/>
			</g>
			<g>
				<rect x="40.207" y="204.412" style="fill:#FFFFFF;" width="12.595" height="42.355"/>
				<rect x="66.349" y="204.412" style="fill:#FFFFFF;" width="6.298" height="42.355"/>
				<rect x="72.646" y="217.481" style="fill:#C9D2FC;" width="6.298" height="29.287"/>
				<rect x="53.753" y="195.747" style="fill:#7AA8E8;" width="12.595" height="51.021"/>
				<rect x="78.944" y="204.412" style="fill:#F5BB11;" width="15.72" height="42.355"/>
				<rect x="104.11" y="204.412" style="fill:#D48111;" width="7.86" height="42.355"/>
				<rect x="94.664" y="198.285" style="fill:#F5BB11;" width="9.447" height="48.483"/>
			</g>
		</g>
		<g style="clip-path:url(#SVGID_00000178895433012155426020000008479928796964481940_);">
			<defs>
				
					<rect id="SVGID_00000008857504254663434080000001273901223355274883_" x="-41.768" y="379.579" width="176.546" height="126.983"/>
			</defs>
			<clipPath id="SVGID_00000151522049106680114200000017737711836607850642_">
				<use xlink:href="#SVGID_00000008857504254663434080000001273901223355274883_"  style="overflow:visible;"/>
			</clipPath>
			<g style="clip-path:url(#SVGID_00000151522049106680114200000017737711836607850642_);">
				<path style="fill:#93BCF7;" d="M-21.176,395.376c-1.811,13.59-3.532,27.236-4.292,40.926c-0.219,3.936-0.329,8.638,2.574,11.728
					c2.988,3.181,7.715,2.633,11.684,3.742l-9.83,2.858c-0.278,0.08-0.512,0.392-0.486,0.686c0.525,5.244,1.276,10.465,2.368,15.623
					c0.898,4.301,1.656,9.501,4.591,12.993c2.892,3.427,7.517,4.198,11.637,5.227c4.948,1.247,9.903,2.487,14.851,3.734
					c-6.463,0.734-13.062,1.279-19.378,2.597c-3.324,0.7-4.427,3.326-3.829,6.634c1.575,8.606,10.441,10.133,18.075,9.917
					c-4.306,1.536-8.612,3.072-12.919,4.594c-0.37,0.137-0.574,0.516-0.47,0.893c2.014,7.183,4.187,14.447,7.027,21.346
					c2.102,5.092,5.018,9.518,10.183,11.835c5.451,2.439,11.896,2.639,17.748,3.107c6.25,0.497,12.506,0.692,18.772,0.652
					c-11.375,4.464-23.325,6.874-35.602,7.098c-0.583,0.02-0.784,0.633-0.562,1.092c6.788,14.256,17.946,25.981,32.052,33.157
					c11.256,5.728,24.405,9.216,34.277,16.992c2.346,2.324,4.471,4.818,6.36,7.559c1.128,1.647,1.519,2.891,2.972,3.114
					c0.021,0.033,0.043,0.065,0.065,0.098c0.204,0.367,0.641,0.226,0.782-0.069c0.1-0.011,0.207-0.016,0.314-0.034
					c0.021,0.006,0.026-0.015,0.032-0.035c0.052-0.029,0.098-0.065,0.128-0.14c1.043-2.63,1.975-5.323,2.826-8.039
					c5.946-13.266,8.828-27.662,8.351-42.29c-0.018-0.388-0.384-0.775-0.784-0.716c-4.92,0.577-9.846,1.161-14.779,1.739
					c3.512-2.48,7.018-4.953,10.495-7.465c2.061-1.482,3.959-2.842,4.398-5.472c0.682-4.077-0.693-9.277-1.332-13.341
					c-0.674-4.251-1.536-8.494-2.736-12.634c-2.032-6.981-5.153-15.639-10.558-20.771c-1.773-1.672-3.627-2.018-5.952-1.343
					c-3.325,0.968-6.595,2.565-9.814,4.106c4.493-4.396,8.986-8.793,13.486-13.182c0.212-0.218,0.272-0.676,0.079-0.93
					c-4.38-5.634-8.806-11.233-13.278-16.796c-2.14-2.662-4.292-5.31-6.458-7.957c-1.186-1.443-2.411-3.32-4.102-4.224
					c-3.535-1.894-6.472,0.969-9.352,2.884c-4.769,3.181-9.538,6.361-14.314,9.536c5.95-7.059,12.068-13.964,18.41-20.679
					c0.275-0.287,0.247-0.776-0.047-1.044c-8.688-8.004-16.921-16.491-24.574-25.502c-1.977-2.32-5.259-8.594-8.679-9.279
					c-1.496-0.288-3.222,0.715-4.488,1.229c-1.555,0.647-3.109,1.294-4.663,1.955c1.855-1.734,3.703-3.461,5.551-5.189
					c0.219-0.211,0.266-0.656,0.08-0.903c-1.451-1.968-2.901-3.923-4.352-5.891c-0.2-0.259-0.529-0.419-0.86-0.31
					c-3.041,1.023-6.082,2.045-9.122,3.081c2.308-2.103,4.622-4.201,6.924-6.297c0.27-0.254,0.239-0.796-0.046-1.018
					c-9.469-7.177-18.965-14.326-28.434-21.503C-20.51,394.803-21.111,394.884-21.176,395.376z M87.381,622.926
					c-0.073-0.131-0.146-0.262-0.226-0.399c0.236-0.427,0.465-0.86,0.687-1.286C87.693,621.798,87.531,622.369,87.381,622.926z"/>
				<path style="fill:#799FE6;" d="M-2.066,412.292c-2.815,3.514-5.334,6.26-9.349,8.276c-2.496-7.688-4.697-15.505-7.345-23.298
					c-0.138-0.405-0.7-0.209-0.621,0.194c1.864,9.522,4.595,19.096,7.989,28.346c-2.355,0.349-4.564,0.506-6.963-0.079
					c-0.312-0.076-0.508,0.426-0.194,0.545c2.355,0.894,5.108,1.363,7.62,0.813c1.191,3.18,2.462,6.319,3.805,9.4
					c-0.142-0.024-0.296-0.021-0.462,0.019c-4.518,1.097-8.994,0.583-13.397-0.737c-0.622-0.186-0.88,0.729-0.365,1.028
					c4.38,2.548,9.541,2.891,14.41,1.794c0.268-0.06,0.456-0.191,0.579-0.357c0.163,0.363,0.316,0.735,0.48,1.096
					c4.319,9.478,10.065,18.08,15.885,26.648c-7.073,2.092-13.912,3.194-21.333,2.631c-0.333-0.025-0.368,0.515-0.048,0.577
					c7.404,1.435,15.468,1.352,22.694-0.966c0.059-0.019,0.109-0.046,0.162-0.07c2.575,3.789,5.144,7.584,7.587,11.46
					c1.047,1.66,2.071,3.335,3.078,5.021c-7.372-1.138-14.847-1.783-22.248-2.661c-0.323-0.039-0.441,0.442-0.109,0.505
					c7.872,1.504,15.744,3.287,23.68,4.423c4.313,7.39,8.267,15.007,12.002,22.748c-10.467,5.08-21.562,8.359-33.214,9.088
					c-0.55,0.034-0.507,0.843,0.039,0.849c11.98,0.132,23.643-2.087,34.5-7.18c1.241,2.619,2.453,5.254,3.651,7.897
					c-0.133-0.106-0.303-0.156-0.491-0.073c-5.153,2.269-10.26,4.069-15.852,4.908c-0.437,0.066-0.422,0.75,0.031,0.699
					c5.624-0.622,11.235-1.99,16.304-4.556c0.178-0.09,0.25-0.249,0.259-0.417c5.678,12.562,10.934,25.34,16.263,37.971
					c-10.656,5.749-21.785,9.678-33.594,12.311c-0.329,0.073-0.235,0.635,0.103,0.586c11.942-1.735,23.536-5.537,34.378-10.8
					c1.059,2.501,2.12,4.997,3.19,7.482c2.453,5.692,4.874,11.396,7.303,17.098c-5.388,3.033-10.677,4.996-17.028,5.052
					c-0.721,0.006-0.643,1.059,0.049,1.099c6.044,0.347,12.64-0.784,17.91-3.968c4.799,11.278,9.573,22.567,14.317,33.868
					c1.017,2.423,4.945,1.231,3.931-1.222c-3.764-9.111-7.568-18.206-11.406-27.288c5.829-0.545,12.017-1.917,16.943-5.113
					c0.484-0.314,0.136-1.164-0.436-0.946c-5.731,2.193-11.072,4.081-17.253,4.313c-3.277-7.743-6.571-15.479-9.902-23.199
					c0.356,0.163,0.805,0.179,1.305-0.066c8.807-4.302,16.831-10.19,23.396-17.486c0.526-0.585-0.321-1.317-0.886-0.81
					c-7.195,6.467-14.881,11.707-23.692,15.729c-0.473,0.216-0.748,0.546-0.868,0.905c-3.729-8.628-7.483-17.245-11.293-25.836
					c0.01-0.002,0.019,0,0.03-0.003c5.439-1.599,10.54-5.31,15.224-8.426c4.751-3.161,9.551-6.523,13.607-10.557
					c0.175-0.174-0.071-0.459-0.275-0.329c-4.815,3.056-9.38,6.445-14.332,9.298c-4.912,2.831-10.507,4.763-15.203,7.882
					c-1.523-3.426-3.05-6.849-4.587-10.268c-3.797-8.445-7.658-16.886-11.877-25.138c0.197-0.012,0.402-0.066,0.611-0.182
					c8.283-4.597,15.6-11.75,21.064-19.427c0.225-0.316-0.167-0.703-0.455-0.416c-6.83,6.796-14.091,12.198-22.028,17.585
					c-0.126,0.086-0.224,0.183-0.309,0.284c-2.449-4.697-5.016-9.331-7.777-13.854c-1.023-1.675-2.084-3.324-3.163-4.962
					c0.301,0.028,0.625-0.047,0.95-0.269c6.773-4.641,12.567-10.7,16.404-18c0.25-0.475-0.43-0.967-0.788-0.546
					c-5.163,6.096-10.65,11.391-17.284,15.892c-0.359,0.243-0.556,0.559-0.639,0.89c-5.704-8.455-11.952-16.543-17.638-25.008
					c0.368,0.267,0.862,0.321,1.367-0.05c6.003-4.421,11.096-10.625,14.91-16.999c0.304-0.509-0.504-1.085-0.869-0.602
					c-4.546,6.012-9.597,10.635-15.469,15.33c-0.507,0.405-0.62,0.986-0.489,1.491c-1.424-2.141-2.813-4.304-4.141-6.509
					c-4.885-8.109-8.224-16.626-11.111-25.323c4.044-1.939,8.002-5.355,9.516-9.653C-1.179,412.267-1.809,411.97-2.066,412.292z"/>
				<path style="fill:#799FE6;" d="M-4.16,457.271c-4.321,0.966-8.696,1.512-13.115,1.758c-0.228,0.013-0.208,0.345,0.016,0.35
					c4.509,0.107,8.975-0.305,13.411-1.106C-3.193,458.156-3.497,457.123-4.16,457.271z"/>
				<path style="fill:#799FE6;" d="M33.337,459.678c-2.944,3.825-6.194,7.31-9.725,10.594c-0.643,0.598,0.354,1.471,0.996,0.91
					c3.687-3.215,6.722-6.973,9.191-11.184C33.958,459.727,33.534,459.423,33.337,459.678z"/>
				<path style="fill:#799FE6;" d="M22.207,496.208c-9.161,3.778-18.066,4.693-27.884,4.453c-0.335-0.008-0.367,0.509-0.048,0.577
					c9.328,1.974,19.724,0.115,28.328-3.757C23.37,497.137,23.009,495.877,22.207,496.208z"/>
				<path style="fill:#799FE6;" d="M65.679,498.96c-3.129,4.185-7.053,7.04-11.708,9.327c-0.74,0.364-0.159,1.636,0.608,1.322
					c4.958-2.032,8.897-5.713,11.737-10.206C66.55,499.033,65.944,498.605,65.679,498.96z"/>
				<path style="fill:#799FE6;" d="M34.892,537.97c-4.168,0.71-8.26,1.496-12.495,1.718c-4.229,0.222-8.384-0.177-12.601-0.299
					c-0.394-0.011-0.429,0.595-0.056,0.675c7.971,1.726,17.497,1.055,25.309-1.199C35.536,538.725,35.415,537.881,34.892,537.97z"/>
				<path style="fill:#799FE6;" d="M83.905,538.095c-4.651,4.556-9.916,7.871-15.839,10.513c-0.844,0.377-0.452,1.758,0.435,1.401
					c6.19-2.495,11.543-6.437,16.08-11.296C84.987,538.28,84.324,537.685,83.905,538.095z"/>
				<path style="fill:#799FE6;" d="M57.854,576.313c-4.735,2.249-9.331,4.283-14.414,5.628c-0.357,0.094-0.183,0.62,0.168,0.541
					c5.085-1.135,10.24-2.728,14.822-5.253C59.054,576.887,58.467,576.022,57.854,576.313z"/>
			</g>
		</g>
		<g style="clip-path:url(#SVGID_00000178895433012155426020000008479928796964481940_);">
			<defs>
				
					<rect id="SVGID_00000142176722869112854170000003342234372254517684_" x="395.789" y="390.965" width="128.154" height="112.085"/>
			</defs>
			<clipPath id="SVGID_00000072972862089963395360000009353628109922226604_">
				<use xlink:href="#SVGID_00000142176722869112854170000003342234372254517684_"  style="overflow:visible;"/>
			</clipPath>
			<g style="clip-path:url(#SVGID_00000072972862089963395360000009353628109922226604_);">
				<path style="fill:#7AA8E8;" d="M484.385,514.662c-1.147-3.337-4.361-5.63-6.669-8.146c-1.458-1.594-2.845-3.258-4.141-4.99
					c-0.784-1.043-1.661-2.128-2.26-3.291c-0.255-0.628-0.506-1.261-0.751-1.889c-0.62-2.772,0.776-3.884,4.187-3.338
					c0.084,0.077,0.183,0.095,0.265,0.072c0.103,0.089,0.207,0.177,0.31,0.266c0.767,0.76,1.447,1.603,2.106,2.455
					c1.196,1.548,2.247,3.199,3.401,4.774c1.98,2.711,4.184,5.149,7.122,6.822c2.193,1.257,7.122,3.523,9.754,1.908
					c0.108,0.029,0.229,0.019,0.346-0.052c6.944-4.215,13.205-16.509,6.657-23.662c-3.013-3.292-7.816-3.454-11.951-3.607
					c-3.449-0.133-6.84-0.372-10.199-1.241c-1.539-0.401-3.051-0.899-4.507-1.519c-1.602-0.682-5.308-2.297-5.96-4.614
					c0.237-0.136,0.379-0.406,0.24-0.734c0.366-0.674,0.722-1.348,1.082-2.017c0.83-0.39,1.692-0.556,2.588-0.519
					c0.988-0.051,1.796,0.08,2.753,0.298c1.648,0.364,3.199,0.997,4.749,1.639c2.997,1.252,6.015,2.439,9.211,3.094
					c3.992,0.815,11.752,1.537,14.189-2.7c0.017-0.024,0.018-0.044,0.025-0.058c0.265,0.137,0.603,0.119,0.758-0.19
					c2.386-4.733,3.529-10.044,3.344-15.342c-0.134-3.993-0.839-9.564-5.057-11.376c-3.97-1.707-8.168,1.279-11.543,3.025
					c-3.999,2.072-16.462,8.527-20.634,3.786c-2.063-7.157,12.941-9.389,17.266-10.521c4.351-1.145,11.157-2.91,12.607-7.86
					c1.416-4.847-4.023-9.309-6.772-12.454c-5.149-5.88-9.384-12.323-8.148-20.474c0.019-0.109-0.078-0.157-0.165-0.139
					c-0.061-0.301-0.514-0.418-0.648-0.062c-2.695,7.31-11.377,6.443-17.663,6.798c-5.261,0.293-11.721,1.122-16.304,3.961
					c-3.568,2.208-3.625,5.527-2.359,9.19c1.984,5.719,5.462,10.716,8.307,16.017c0.021,0.177,0.036,0.36,0.042,0.541
					c-0.061,0.136-0.079,0.29-0.018,0.47c0.011,0.046,0.023,0.092,0.034,0.138c-0.002,0.708-0.089,1.414-0.36,2.09
					c-0.467,1.177-1.577,2.112-2.829,1.941c-0.143-0.037-0.29-0.079-0.437-0.121c-0.612-0.697-1.346-2.173-1.863-2.988
					c-2.025-3.157-4.039-6.322-6.064-9.479c-1.872-2.933-3.588-8.043-7.845-6.7c-5.355,1.702-9.803,6.72-13.344,10.828
					c-2.931,3.394-3.997,7.144-1.96,11.331c2.446,5.029,7.726,7.303,12.413,9.766c0.998,0.517,1.998,1.06,2.974,1.661
					c1.268,0.901,2.382,1.905,3.346,3.027c-0.15,0.118-0.201,0.375,0.005,0.497c1.323,0.78,2.104,2.485,1.423,3.956
					c-0.717,1.539-2.365,1.742-3.833,1.393c-0.084-0.022-0.17-0.014-0.241,0.001c-0.01-0.001-0.02-0.002-0.024-0.007
					c-1.688-0.488-3.298-1.256-4.827-2.102c-4.58-2.544-8.747-6.472-13.855-7.954c-4.048-1.176-6.692,1.473-8.468,4.87
					c-2.138,4.086-3.965,9.171-2.478,13.77c1.328,4.14,4.703,6.185,8.922,6.109c2.379-0.044,4.754-0.474,7.125-0.614
					c2.069-0.124,4.141-0.168,6.217-0.13c0.496,0.015,0.986,0.034,1.477,0.054c0.861,0.411,2.052,1.015,2.671,1.873
					c0.109,0.576,0.214,1.147,0.323,1.723c-0.02,0.064-0.03,0.118-0.054,0.176c-0.661,1.714-2.72,1.402-4.151,1.839
					c-0.216,0.063-0.329,0.224-0.358,0.388c-1.202,0.149-2.338,0.223-3.048,0.306c-2.586,0.303-5.21,0.473-7.732,1.168
					c-9.686,2.662-12.867,14.744-5.885,21.992c7.756,8.049,19.879,5.302,26.71-2.356c0.22-0.243,0.176-0.503,0.02-0.686l0.341,0.128
					c-0.03,0.118-0.02,0.25,0.044,0.39c3.135,6.626,6.823,13.879,13.637,17.367c5.555,2.849,13.608,3.369,19.503,1.32
					C482.019,524.369,486.116,519.723,484.385,514.662z"/>
				<path style="fill:#6591D8;" d="M479.777,519.52c-4.415-12.476-17.923-23.308-30.847-25.659
					c-0.197-0.036-0.372-0.023-0.528,0.023c0.977-3.008,2.016-5.993,3.112-8.957c0.063-0.01,0.126-0.02,0.184-0.038
					c0.358,0.312,0.741,0.59,1.152,0.829c0.516,0.319,1.069,0.581,1.626,0.817c1.464,0.623,3.035,0.975,4.605,1.212
					c4.051,0.612,8.163,0.38,12.17,1.353c8.798,2.136,15.316,7.537,20.78,14.487c0.221,0.281,0.687-0.019,0.53-0.34
					c-3.573-7.258-10.933-12.976-18.485-15.579c-3.843-1.324-7.736-1.725-11.746-2.195c-2.184-0.256-4.44-0.534-6.468-1.436
					c-1.2-0.534-2.117-1.507-3.217-2.105c1.518-3.952,3.12-7.874,4.806-11.765c-0.034,0.194-0.026,0.394,0.068,0.582
					c3.448,6.915,12.218,12.104,19.125,14.868c7.546,3.021,16.614,4.336,24.553,2.282c0.051-0.013,0.056-0.1-0.005-0.099
					c-8.172,0.181-15.815-0.622-23.376-3.94c-3.773-1.656-7.315-3.794-10.538-6.362c-3.051-2.431-5.292-5.545-8.16-8.11
					c-0.112-0.1-0.23-0.16-0.351-0.194c-0.156-0.305-0.323-0.598-0.503-0.879c1.11-2.526,2.243-5.043,3.406-7.55
					c0.089,0.216,0.246,0.413,0.487,0.564c6.407,4.019,15.036,5.321,22.482,5.339c6.832,0.016,16.359-0.924,21.609-5.779
					c0.148-0.137-0.042-0.355-0.201-0.237c-5.987,4.422-15.708,4.75-22.848,4.195c-7.206-0.56-13.251-3.24-19.84-5.898
					c-0.296-0.119-0.576-0.114-0.824-0.031c0.277-0.59,0.552-1.18,0.831-1.769c3.705-7.816,7.531-15.574,11.281-23.37
					c0.109,0.076,0.233,0.142,0.388,0.188c7.396,2.178,15.864-0.43,21.221-5.861c0.19-0.193-0.054-0.487-0.274-0.322
					c-6.069,4.547-12.827,5.526-20.124,3.835c-0.058-0.013-0.112-0.016-0.168-0.022c0.992-2.078,1.979-4.159,2.965-6.24
					c0.111-0.107,0.176-0.24,0.187-0.392c0.681-1.435,1.359-2.871,2.054-4.298c2.182-4.477,4.839-8.935,6.283-13.716
					c0.018-0.061-0.061-0.101-0.099-0.05c-2.87,3.81-4.834,8.349-7.041,12.564c-0.681,1.302-1.375,2.597-2.071,3.891
					c-1.092-1.716-2.105-3.411-2.643-5.44c-0.67-2.524-0.437-4.959-0.146-7.514c0.014-0.123-0.161-0.152-0.205-0.044
					c-1.798,4.384-0.949,10.852,2.139,14.58c-1.306,2.409-2.62,4.813-3.912,7.228c-0.889,1.662-1.777,3.326-2.663,4.99
					c-4.746-6.775-8.165-13.352-9.555-21.701c-0.035-0.212-0.329-0.145-0.319,0.057c0.422,8.324,3.225,17.371,8.749,23.766
					c-2.278,4.299-4.532,8.61-6.731,12.949c-10.981-2.813-19.43-10.983-22.699-21.854c-0.07-0.232-0.426-0.183-0.38,0.068
					c2.097,11.374,10.893,20.804,22.014,23.905c-0.215,0.43-0.434,0.858-0.649,1.289c-1.247,2.506-2.473,5.027-3.675,7.563
					c-5.292-9.534-16.217-17.266-26.522-19.984c-0.265-0.069-0.388,0.287-0.14,0.4c5.477,2.492,10.535,5.243,15.045,9.275
					c4.214,3.768,7.224,8.143,10.505,12.674c-1.402,3.011-2.759,6.045-4.061,9.101c-5.79-0.178-11.388-0.871-16.854-2.906
					c-5.579-2.077-10.148-5.228-14.954-8.631c-0.119-0.084-0.274,0.083-0.173,0.193c7.499,8.172,20.017,13.057,31.032,13.608
					c-2.285,5.51-4.363,11.102-6.158,16.783c-0.187-0.04-0.395-0.03-0.615,0.056c-8.064,3.109-15.252,4.172-23.873,3.127
					c-0.14-0.017-0.186,0.199-0.051,0.242c7.405,2.366,16.572,2.022,23.815-1.064c-0.572,1.907-1.101,3.828-1.604,5.756
					c-3.893,2.213-7.814,4.035-12.178,5.207c-0.199,0.053-0.152,0.353,0.057,0.318c4.066-0.677,8.057-1.882,11.696-3.822
					c-0.184,0.74-0.383,1.476-0.554,2.219c-0.448,1.941,2.474,3.024,2.971,1.041c0.51-2.034,1.062-4.054,1.639-6.063
					c5.675,4.767,9.618,9.962,13.956,15.931c0.113,0.156,0.357-0.011,0.28-0.18c-2.938-6.411-6.917-14.041-13.213-17.712
					c-0.133-0.078-0.264-0.123-0.392-0.149c0.281-0.939,0.549-1.883,0.844-2.817c0.131,0.23,0.333,0.422,0.621,0.528
					c6.341,2.331,12.229,4.717,17.65,8.872c5.371,4.116,9.343,9.196,13.367,14.551C479.577,519.95,479.851,519.73,479.777,519.52z"
					/>
			</g>
		</g>
		<g style="clip-path:url(#SVGID_00000178895433012155426020000008479928796964481940_);">
			<defs>
				
					<rect id="SVGID_00000145761876102912046240000004863504465973755783_" x="21.531" y="368.886" width="155.713" height="132.939"/>
			</defs>
			<clipPath id="SVGID_00000075861017035838874630000005157525965385130685_">
				<use xlink:href="#SVGID_00000145761876102912046240000004863504465973755783_"  style="overflow:visible;"/>
			</clipPath>
			<g style="clip-path:url(#SVGID_00000075861017035838874630000005157525965385130685_);">
				<path style="fill:#7AA8E8;" d="M120.81,446.776c-0.107,0.024-0.204,0.095-0.235,0.23c-0.599,2.391-1.186,4.793-1.772,7.196
					c-0.762-7.218-3.961-13.793-7.431-20.189c-2.268-4.19-4.643-8.356-6.372-12.803c-1.991-5.108-2.843-10.487-3.632-15.873
					c-0.093-0.652-1.075-0.731-1.184-0.043c-2.978,19.11,0.907,41.304,17.537,53.239c-0.806,3.149-1.638,6.292-2.555,9.409
					c-10.511-15.588-19.254-32.244-26.156-49.737c-0.284-0.719-1.242-0.41-1.245,0.295c-0.216,20.138,8.872,41.431,26.589,52.097
					c-0.748,2.414-1.532,4.818-2.404,7.19c-0.575,1.545-1.193,3.066-1.839,4.58c-1.568-7.572-5.101-14.284-10.363-20.15
					c-6.956-7.759-13.439-15.212-18.327-24.509c-0.321-0.622-1.324-0.495-1.255,0.29c1.638,19.594,11.623,38,27.576,49.574
					c-1.868,3.813-3.983,7.497-6.273,11.074c-5.897-16.901-23.235-26.727-29.306-43.628c-0.248-0.691-1.388-0.445-1.284,0.301
					c1.571,10.453,4.627,20.783,10.656,29.577c2.682,3.908,5.905,7.458,9.638,10.392c2.716,2.139,5.864,4.477,9.372,4.814
					c-0.938,1.419-1.907,2.826-2.917,4.207c-2.39,3.292-4.936,6.438-7.587,9.482c0.906-7.576-3.563-14.873-8.198-20.723
					c-6.981-8.818-15.85-16.317-19.766-27.162c-0.254-0.706-1.408-0.454-1.298,0.307c1.482,10.76,4.698,21.228,9.772,30.859
					c4.064,7.709,9.067,15.297,16.563,19.993c-3.391,3.684-6.936,7.204-10.58,10.637c-0.348-7.303-2.274-14.447-5.756-20.897
					c-4.29-7.953-12.32-13.414-15.827-21.724c-0.271-0.642-1.265-0.426-1.199,0.285c1.466,16.554,8.788,32.612,21.134,43.87
					c-6.132,5.671-12.511,11.088-18.896,16.466c-0.038,0.031-0.048,0.068-0.079,0.096c-0.172-0.166-0.53,0.021-0.444,0.311
					c0.094,0.353,0.099,0.757,0.258,1.085c0.18,0.362,0.558,0.722,0.87,0.975c0.544,0.446,1.203,0.74,1.895,0.839
					c0.178,0.139,0.425,0.201,0.667,0.034c7.435-5.168,14.369-11.013,20.731-17.426c0.772,1.799,4.443,3.233,5.908,3.922
					c3.747,1.76,7.826,2.747,11.922,3.215c10.128,1.17,20.284-0.917,30.366-1.725c0.525-0.036,0.73-0.752,0.317-1.074
					c-13.089-10.344-31.747-13.115-46.977-5.903c4.055-4.22,7.857-8.667,11.393-13.334c-0.119,0.36,0.115,0.883,0.624,0.895
					c18.807,0.502,37.923,0.729,56.085-4.816c0.555-0.171,0.441-1.031-0.11-1.109c-10.308-1.465-20.841-3.498-31.26-3.87
					c-9.257-0.344-16.89,3.657-24.449,8.566c-0.132,0.001-0.26-0.008-0.385-0.01c-0.142-0.003-0.248,0.045-0.333,0.103
					c2.999-3.973,5.807-8.096,8.394-12.367c1.214-1.997,2.381-4.051,3.522-6.128c0.011,0.244,0.161,0.485,0.479,0.537
					c7.857,1.336,16.651,2.438,24.582,1.072c7.962-1.37,15.753-5.35,23.244-8.253c0.512-0.196,0.479-1.062-0.11-1.109
					c-8.034-0.697-16.39-2.124-24.458-1.441c-8.04,0.671-15.798,4.497-22.829,8.235c-0.129,0.074-0.169,0.206-0.147,0.329
					c-0.027-0.006-0.062-0.009-0.089-0.016c-0.133-0.023-0.247,0.004-0.345,0.049c1.743-3.21,3.409-6.49,4.944-9.852
					c0.084,0.026,0.18,0.038,0.277,0.01c1.112-0.318,2.14-0.812,3.087-1.473c0.007-0.003,0.005-0.01,0.012-0.013
					c3.204-0.499,7.089,0.629,10.301,0.218c3.719-0.473,7.319-1.687,10.729-3.226c8.123-3.651,15.244-9.162,23.498-12.582
					c0.5-0.208,0.491-1.074-0.116-1.123c-16.553-1.275-33.264,4.061-45.257,15.613c-0.339,0.088-0.679,0.194-1.016,0.331
					c-0.163,0.071-0.251,0.187-0.306,0.324c-0.154,0.051-0.303,0.116-0.449,0.189c2.299-5.195,4.329-10.528,5.983-15.956
					c0.061,0.009,0.116,0.022,0.182,0.021c17.533-1.568,27.182-18.763,42.32-25.525c0.617-0.27,0.4-1.139-0.265-1.124
					c-8.605,0.192-16.307,3.276-23.208,7.85c-6.905,4.584-13.017,10.652-18.431,16.793c0.862-3.022,1.626-6.064,2.257-9.129
					c0.17-0.032,0.322-0.132,0.406-0.346c0.622-1.596,4.845-2.503,6.242-3.137c1.644-0.746,3.25-1.568,4.818-2.467
					c1.399-0.801,2.768-1.657,4.098-2.572c2.09-1.439,4.091-3.025,5.971-4.731c2.791-2.527,5.348-5.32,7.59-8.349
					c2.702-3.644,4.802-7.628,8.909-9.898c0.595-0.327,0.041-1.341-0.578-1.054c-7.455,3.494-15.833,5.529-22.107,11.113
					c-5.869,5.214-10.414,12.346-14.655,18.931c-0.085,0.058-0.161,0.12-0.244,0.185c0.489-2.655,0.896-5.312,1.174-7.977
					c0.048-0.027,0.093-0.061,0.139-0.111c14.926-18.679,4.125-44.466,7.684-65.819c0.113-0.656-0.77-0.864-1.059-0.323
					C117.912,400.902,111.548,426.344,120.81,446.776z"/>
				<g>
					<path style="fill:#6591D8;" d="M122.551,447.842c2.542-10.026,2.104-20.84,2.126-31.105c0.024-11.587,0.566-22.657,4.23-33.729
						c0.105-0.317-0.351-0.537-0.484-0.216c-3.936,9.518-4.611,20.215-4.869,30.392c-0.294,11.615-0.376,22.953-2.264,34.45
						C121.155,448.459,122.352,448.627,122.551,447.842z"/>
					<path style="fill:#6591D8;" d="M118.734,456.068c-10.977-14.975-17.568-31.385-18.066-50.109
						c-0.006-0.197-0.292-0.158-0.298,0.029c-0.563,17.982,5.404,37.155,17.51,50.709
						C118.326,457.195,119.145,456.629,118.734,456.068z"/>
					<path style="fill:#6591D8;" d="M114.05,466.955c-13.916-12.72-22.873-29.984-24.938-48.735
						c-0.058-0.523-0.857-0.444-0.812,0.079c1.641,19.125,10.52,36.972,25.01,49.578
						C113.887,468.379,114.609,467.465,114.05,466.955z"/>
					<path style="fill:#6591D8;" d="M108.264,484.317c-5.559-6.88-11.27-13.642-16.093-21.076
						c-5.112-7.88-8.362-15.986-11.004-24.937c-0.042-0.141-0.264-0.084-0.249,0.059c1.879,17.738,15.18,33.682,26.219,46.785
						C107.712,485.831,108.835,485.023,108.264,484.317z"/>
					<path style="fill:#6591D8;" d="M100.61,498.37c-6.478-5.782-12.219-12.311-17.017-19.554
						c-4.866-7.345-8.129-15.171-11.689-23.167c-0.146-0.328-0.588-0.138-0.508,0.195c4.04,16.746,15.773,32.249,28.424,43.513
						C100.428,499.897,101.217,498.911,100.61,498.37z"/>
					<path style="fill:#6591D8;" d="M88.815,513.92c-5.168-7.207-10.349-14.426-14.919-22.033
						c-4.829-8.039-8.367-16.344-11.649-25.092c-0.078-0.209-0.441-0.138-0.393,0.093c3.638,17.707,15.576,33.451,25.834,47.863
						C88.209,515.484,89.341,514.654,88.815,513.92z"/>
					<path style="fill:#6591D8;" d="M75.426,528.206c-0.984-7.252-5.191-13.302-9.035-19.33
						c-4.844-7.597-8.549-15.594-12.206-23.799c-0.093-0.209-0.396-0.091-0.33,0.126c2.188,7.184,5.569,14.086,9.328,20.57
						c4.256,7.339,9.422,14.014,10.97,22.556C74.299,529.129,75.537,529.029,75.426,528.206z"/>
					<path style="fill:#6591D8;" d="M138.341,445.009c2.714-2.936,5.196-6.081,7.828-9.089c3.271-3.739,6.912-6.427,10.765-9.46
						c0.212-0.167,0.031-0.531-0.233-0.425c-6.135,2.453-11.088,8.906-15.264,13.785c-5.834,6.815-12.016,13.472-21.129,15.445
						c-0.628,0.136-0.557,1.128,0.098,1.015C127.68,455.019,133.452,450.298,138.341,445.009z"/>
					<path style="fill:#6591D8;" d="M137.137,456.741c6.703-5.44,13.863-9.378,21.538-13.26c0.339-0.172,0.159-0.677-0.214-0.558
						c-15.344,4.884-25.738,18.016-39.62,25.502c-0.335,0.18-0.161,0.716,0.219,0.571
						C125.93,466.369,131.502,461.315,137.137,456.741z"/>
					<path style="fill:#6591D8;" d="M157.645,469.79c0.19-0.046,0.107-0.344-0.077-0.328c-7.348,0.643-15.017,2.147-21.952,4.701
						c-7.548,2.78-14.034,7.978-21.998,9.635c-0.836,0.174-0.725,1.501,0.13,1.339c7.444-1.41,13.376-6.122,20.212-9.064
						C141.578,472.796,149.666,471.747,157.645,469.79z"/>
					<path style="fill:#6591D8;" d="M152.387,490.129c-15.042,3.409-29.909,5.441-45.248,6.937
						c-0.879,0.086-0.735,1.382,0.132,1.353c15.15-0.494,30.733-3.41,45.24-7.766C152.8,490.566,152.687,490.061,152.387,490.129z"
						/>
					<path style="fill:#6591D8;" d="M148.571,512.063c-17.216-2.704-36.642-1.476-53.287,3.749c-0.762,0.24-0.47,1.571,0.328,1.39
						c8.511-1.933,16.874-3.842,25.588-4.646c9.125-0.842,18.169-0.574,27.303-0.077
						C148.768,512.494,148.845,512.106,148.571,512.063z"/>
					<path style="fill:#6591D8;" d="M127.392,535.598c-15.246-2.166-30.705-3.544-46.043-4.909c-0.995-0.089-1.259,1.44-0.254,1.542
						c15.342,1.566,30.805,3.138,46.208,3.904C127.645,536.152,127.747,535.649,127.392,535.598z"/>
				</g>
			</g>
		</g>
		<g style="clip-path:url(#SVGID_00000178895433012155426020000008479928796964481940_);">
			<path style="fill:#21181E;" d="M215.055,152.565c-9.566,5.243-16.95,20.293-18.109,33.193
				c-1.159,12.901-7.797,30.533-8.053,34.738c-0.255,4.205,31.232,7.153,33.743,6.956s16.654-3.749,17.123-8.739
				c0.469-4.99-2.667-26.856-2.98-28.334c-0.314-1.478-4.61-27.745-4.61-27.745L215.055,152.565z"/>
			<g>
				<g>
					<g>
						<g>
							<g>
								<path style="fill:#FFFFFF;" d="M248.539,223.435l-0.039,0.694l-0.038,0.9c-0.02,0.621-0.035,1.253-0.043,1.894
									c-0.026,1.281-0.021,2.59,0,3.902c0.045,2.628,0.174,5.282,0.371,7.936c0.368,5.314,1.048,10.63,1.99,15.889
									c0.49,2.626,1.019,5.244,1.62,7.844c0.622,2.593,1.29,5.176,2.045,7.729c0.176,0.643,0.382,1.275,0.576,1.912
									c0.2,0.634,0.384,1.275,0.597,1.905c0.424,1.259,0.828,2.528,1.292,3.772c0.228,0.624,0.443,1.253,0.68,1.873l0.718,1.857
									l0.179,0.465l0.09,0.232l0.022,0.058c0.006,0.017,0.021,0.053,0.008,0.023l-0.04-0.087
									c-0.065-0.125-0.102-0.201-0.155-0.283c-0.033-0.062-0.083-0.127-0.102-0.156c-0.12-0.149-0.074-0.051,0.048,0.103
									c0.271,0.338,0.904,0.945,1.676,1.555c0.777,0.619,1.703,1.273,2.696,1.919c1.996,1.294,4.254,2.569,6.594,3.797
									c2.346,1.227,4.793,2.408,7.288,3.548c2.497,1.138,5.036,2.257,7.611,3.333c5.15,2.152,10.406,4.205,15.71,6.173
									c2.65,0.99,5.315,1.957,7.987,2.9l4.01,1.395l2,0.689l1.955,0.661l-5.253,18.368l-2.208-0.562l-2.155-0.563
									c-1.431-0.382-2.856-0.776-4.279-1.174c-2.846-0.797-5.684-1.619-8.518-2.47c-5.664-1.718-11.311-3.548-16.949-5.581
									c-5.646-2.03-11.271-4.236-16.958-6.878c-2.849-1.328-5.707-2.77-8.638-4.509c-1.468-0.875-2.955-1.822-4.492-2.938
									c-1.538-1.129-3.127-2.392-4.828-4.173c-0.853-0.913-1.732-1.935-2.623-3.309c-0.219-0.331-0.444-0.712-0.658-1.087
									c-0.221-0.404-0.431-0.797-0.639-1.254l-0.227-0.503l-0.117-0.269l-0.235-0.538l-0.936-2.154
									c-0.309-0.72-0.594-1.448-0.891-2.171c-0.603-1.445-1.142-2.912-1.7-4.374c-0.279-0.731-0.528-1.47-0.793-2.206
									c-0.259-0.737-0.529-1.471-0.767-2.214l-0.731-2.225c-0.239-0.743-0.457-1.492-0.686-2.238
									c-0.466-1.491-0.866-2.997-1.291-4.498c-0.803-3.012-1.54-6.041-2.17-9.091c-1.247-6.103-2.184-12.261-2.766-18.479
									c-0.278-3.111-0.458-6.237-0.549-9.393c-0.043-1.58-0.066-3.164-0.052-4.775c0.009-0.805,0.029-1.619,0.057-2.444
									l0.054-1.267l0.036-0.664l0.055-0.808L248.539,223.435z"/>
							</g>
						</g>
					</g>
					<g>
						<g>
							<g>
								<g>
									<path style="fill:#C9DAF4;" d="M250.519,287.426c-0.217,0-0.431-0.099-0.57-0.287c-0.233-0.315-0.166-0.758,0.148-0.99
										c3.884-2.872,7.461-4.699,7.611-4.776c0.349-0.176,0.775-0.038,0.952,0.311c0.177,0.349,0.038,0.775-0.311,0.952
										c-0.036,0.018-3.626,1.852-7.41,4.651C250.813,287.381,250.666,287.426,250.519,287.426z"/>
								</g>
							</g>
						</g>
						<g>
							<g>
								<g>
									<path style="fill:#C9DAF4;" d="M252.61,282.677c-0.367,0-0.677-0.283-0.706-0.655c-0.029-0.39,0.263-0.73,0.653-0.759
										c0.028-0.002,2.803-0.209,5.141-0.209c0.391,0,0.708,0.317,0.708,0.708c0,0.391-0.317,0.708-0.708,0.708
										c-2.286,0-5.008,0.203-5.035,0.205C252.645,282.677,252.627,282.677,252.61,282.677z"/>
								</g>
							</g>
						</g>
					</g>
					<g>
						<g>
							<g>
								<g>
									<g>
										<path style="fill:#C9DAF4;" d="M299.274,325.251c-0.067,0-0.135-0.01-0.202-0.03c-0.375-0.112-0.588-0.506-0.477-0.881
											l6.408-21.546c0.112-0.375,0.505-0.588,0.881-0.477c0.375,0.112,0.589,0.506,0.477,0.881l-6.408,21.546
											C299.862,325.052,299.58,325.251,299.274,325.251z"/>
									</g>
								</g>
							</g>
							<g>
								<g>
									<g>
										<path style="fill:#C9DAF4;" d="M311.26,322.344c-0.071,0-0.143-0.011-0.214-0.033l-9.848-3.113
											c-0.373-0.118-0.58-0.516-0.462-0.889c0.118-0.373,0.516-0.58,0.889-0.462l9.848,3.113
											c0.373,0.118,0.58,0.516,0.462,0.889C311.84,322.15,311.561,322.344,311.26,322.344z"/>
									</g>
								</g>
							</g>
						</g>
						<g>
							<g>
								<g>
									<path style="fill:#C9DAF4;" d="M309.591,314.659c0.182,0.885-0.388,1.75-1.273,1.932c-0.885,0.182-1.75-0.388-1.932-1.273
										c-0.182-0.885,0.388-1.75,1.273-1.932S309.409,313.774,309.591,314.659z"/>
								</g>
							</g>
						</g>
					</g>
				</g>
				<g>
					<g>
						<g>
							<g>
								<path style="fill:#C66611;" d="M263.17,428.615h-83.594c-1.956,0-3.541-1.585-3.541-3.541s1.585-3.541,3.541-3.541h83.594
									c1.956,0,3.541,1.585,3.541,3.541S265.126,428.615,263.17,428.615z"/>
							</g>
						</g>
					</g>
					<g>
						<g>
							<g>
								<path style="fill:#F5BB11;" d="M271.295,485.104c-1.747,0-3.267-1.293-3.505-3.071l-15.249-113.039h-61.999l-14.727,113.244
									c-0.256,1.939-2.034,3.303-3.973,3.048c-1.939-0.255-3.303-2.035-3.048-3.973l15.133-116.323
									c0.232-1.761,1.734-3.078,3.51-3.078h68.202c1.774,0,3.274,1.313,3.51,3.071l15.661,116.11
									c0.26,1.938-1.101,3.72-3.039,3.98C271.61,485.094,271.452,485.104,271.295,485.104z"/>
							</g>
						</g>
					</g>
					<g>
						<g>
							<g>
								<path style="fill:#F5BB11;" d="M235.886,365.453H191.59c-14.033,0-29.06-7.68-31.215-21.547
									c-2.881-18.542-3.594-36.5-2.789-52.978c0.91-18.637,9.809-35.975,24.46-47.53l0,0c0,0,8.848,38.559-2.278,91.779
									C184.017,355.399,235.886,365.453,235.886,365.453z"/>
							</g>
						</g>
					</g>
				</g>
				<g>
					<g>
						<g>
							<g>
								<g>
									<g>
										<path style="fill:#2C2D40;" d="M314.533,469.89c-2.647-4.259-26.361-26.952-26.361-26.952s-3.781,3.875-4.599,7.981
											c-1.984,9.954,4.628,17.572,4.628,17.572s6.836,9.176,11.899,12.552c11.104,7.404,21.116,4.418,25.102,3.882
											C329.188,484.389,317.18,474.149,314.533,469.89z"/>
									</g>
								</g>
							</g>
						</g>
						<g>
							<g>
								<g>
									<g>
										<path style="fill:#FF8C64;" d="M285.323,432.571l3.156,9.343c0,0-1.325,3.058,0.009,7.574
											c1.334,4.516,6.373,11.681,11.181,16.996c4.148,4.585,13.033,9.154,15.689,7.955c2.656-1.199-5.061-10.359-7.326-15.14
											c-2.264-4.781-3.19-9.375-3.96-13.408c-0.787-4.122-1.292-14.247-1.292-14.247L285.323,432.571z"/>
									</g>
								</g>
							</g>
						</g>
					</g>
					<g>
						<g>
							<g>
								<g>
									<g>
										<g>
											<path style="fill:#2C2D40;" d="M384.317,462.545c-4.013-3.007-34.35-15.537-34.35-15.537s-1.112,4.929-1.387,9.106
												c-0.527,8.031,19.901,20.235,25.831,21.61c15.419,3.575,21.789-3.098,25.308-5.046
												C403.237,470.731,388.331,465.551,384.317,462.545z"/>
										</g>
									</g>
								</g>
							</g>
							<g>
								<g>
									<g>
										<g>
											<path style="fill:#FF8C64;" d="M343.548,438.383l6.334,7.559c0,0-0.124,3.33,2.759,7.054
												c2.883,3.724,10.18,8.568,16.59,11.774c5.53,2.765,15.467,3.795,17.507,1.713c2.039-2.082-8.478-7.813-12.324-11.445
												c-3.846-3.632-6.378-7.576-8.559-11.053c-2.23-3.555-6.378-12.805-6.378-12.805L343.548,438.383z"/>
										</g>
									</g>
								</g>
							</g>
						</g>
						<g>
							<g>
								<g>
									<path style="fill:#21181E;" d="M316.573,323.73c-4.908-4.831-83.067-24.591-108.777-17.411
										c-2.946,5.669,32.743,28.995,41.955,42.282c33.797,5.523,52.658,16.892,52.658,16.892s11.983,27.693,19.104,37.857
										c7.121,10.164,20.69,38.373,20.69,38.373l19.079-9.065C361.282,432.658,329.935,336.883,316.573,323.73z"/>
								</g>
							</g>
						</g>
						<g>
							<g>
								<g>
									<path style="fill:#564C54;" d="M337.534,430.783c-0.274,0-0.535-0.16-0.65-0.427c-0.155-0.359,0.01-0.776,0.369-0.931
										l19.151-8.286c0.359-0.156,0.776,0.01,0.931,0.368c0.155,0.359-0.01,0.776-0.369,0.931l-19.151,8.287
										C337.724,430.764,337.628,430.783,337.534,430.783z"/>
								</g>
							</g>
						</g>
						<g>
							<g>
								<g>
									<path style="fill:#564C54;" d="M342.203,428.763c-0.272,0-0.531-0.157-0.648-0.422c-0.058-0.129-1.56-3.396-12.554-21.404
										c-11.977-19.618-23.992-47.886-24.112-48.17c-0.152-0.36,0.016-0.776,0.376-0.928c0.36-0.153,0.776,0.015,0.928,0.376
										c0.12,0.282,12.094,28.456,24.017,47.984c11.116,18.207,12.583,21.44,12.64,21.569c0.159,0.358-0.003,0.776-0.361,0.934
										C342.396,428.743,342.299,428.763,342.203,428.763z"/>
								</g>
							</g>
						</g>
					</g>
					<g>
						<g>
							<g>
								<path style="fill:#21181E;" d="M180.41,299.956c0,0-26.624,58.535,46.504,62.809c33.004,1.929,48.773-3.191,48.773-3.191
									s0.795,29.192,2.332,41.507c1.537,12.315,6.115,34.275,6.115,34.275h19.784c0,0,7.927-89.992-8.031-99.834
									c-15.958-9.842-43.629-17.23-83.024-21.01C212.864,314.511,186.212,302.771,180.41,299.956z"/>
							</g>
						</g>
					</g>
					<g>
						<g>
							<g>
								<path style="fill:#564C54;" d="M286.589,424.774c-0.33,0-0.626-0.232-0.694-0.568c-2.853-14.127-3.811-31.71-4.582-45.838
									c-0.638-11.715-1.242-22.78-2.746-24.11c-1.219-1.077-6.28-0.237-12.687,0.827c-12.745,2.116-32.007,5.314-53.247,0.371
									c-11.57-2.692-20.075-8.312-25.28-16.704c-8.977-14.473-4.884-32.415-4.842-32.595c0.09-0.38,0.472-0.617,0.852-0.526
									c0.381,0.089,0.617,0.471,0.527,0.851c-0.041,0.174-3.996,17.568,4.673,31.533c5,8.055,13.207,13.459,24.392,16.062
									c20.966,4.878,40.06,1.708,52.694-0.389c7.567-1.256,12.134-2.015,13.857-0.491c1.862,1.645,2.386,9.736,3.223,25.094
									c0.768,14.082,1.723,31.609,4.556,45.635c0.077,0.383-0.171,0.757-0.554,0.835
									C286.682,424.769,286.635,424.773,286.589,424.774z"/>
							</g>
						</g>
					</g>
					<g>
						<g>
							<g>
								<path style="fill:#564C54;" d="M304.297,424.773c-0.005,0-0.01,0-0.016,0l-22.001-0.472
									c-0.391-0.008-0.701-0.332-0.693-0.723c0.008-0.391,0.328-0.71,0.723-0.693l22.001,0.472
									c0.391,0.008,0.701,0.332,0.693,0.723C304.997,424.466,304.681,424.773,304.297,424.773z"/>
							</g>
						</g>
					</g>
					<g>
						<g>
							<g>
								<g>
									<path style="fill:#317BE6;" d="M233.926,329.147h75.916c0.752,0,1.362-0.61,1.362-1.362v-7.525
										c0-0.752-0.609-1.362-1.362-1.362h-75.917c-0.752,0-1.362,0.61-1.362,1.362v7.525
										C232.564,328.538,233.174,329.147,233.926,329.147z"/>
								</g>
							</g>
						</g>
						<g>
							<g>
								<g>
									<path style="fill:#3B94E6;" d="M319.412,329.147c2.96,0,5.55-1.989,6.314-4.849l14.707-55.076
										c0.899-3.366-1.638-6.669-5.122-6.669h-35.209c-2.376,0-4.461,1.58-5.104,3.868l-17.62,62.726H319.412z"/>
								</g>
							</g>
						</g>
						<g>
							<g>
								<g>
									<path style="fill:#317BE6;" d="M294.994,266.422l-17.473,62.209h-4.023l17.473-62.209c0.647-2.288,2.729-3.871,5.106-3.871
										h4.024C297.724,262.552,295.641,264.134,294.994,266.422z"/>
								</g>
							</g>
						</g>
						<g>
							<g>
								<g>
									<path style="fill:#FFFFFF;" d="M304.941,296.743c-0.8,3.459,1.355,6.263,4.813,6.263c3.459,0,6.912-2.804,7.712-6.263
										c0.8-3.458-1.355-6.262-4.813-6.262C309.194,290.481,305.742,293.285,304.941,296.743z"/>
								</g>
							</g>
						</g>
					</g>
					<g>
						<g>
							<g>
								<g>
									<g>
										<g>
											<path style="fill:#FFFFFF;" d="M253.084,268.862c-0.035,0.063-0.057,0.116-0.092,0.179
												c-0.351,0.686-0.743,1.341-1.177,1.977c-2.558,3.81-6.281,6.737-7.749,7.813c-0.406,0.305-0.643,0.457-0.643,0.457
												c-0.004,0.022,0.002,0.047-0.004,0.08c-0.018,0.217-0.036,0.433-0.059,0.672c-0.081,0.911-0.152,2.01-0.133,3.242
												c0.308,14.16,0.593,16.576,0.663,22.58c-1.445,1.406-13.937,7.598-14.516,8.956c-3.21,7.526,2.367,49.797,0.981,52.839
												c-1.916,4.207-60.074-13.857-61.45-16.946c0.748-14.14,12.253-64.894,12.799-78.613
												c0.269-6.623-0.48-16.777-2.107-27.064c-0.062-0.406-0.123-0.811-0.196-1.219c-0.499-3.027-1.068-6.055-1.714-8.983
												c-2.823-12.822,0.446-23.217,8.296-26.713c2.667-1.188,10.293-1.936,13.616-1.985c0.895-0.014,1.777-0.02,2.612-0.023
												c4.667,0.011,8.281,0.203,8.281,0.203l21.546,4.394c2.077,0.652,3.938,1.285,5.597,1.938
												c1.458,0.557,2.762,1.13,3.925,1.712c10.415,5.164,9.712,11.032,9.696,21.851c0.002,3.083,0.247,6.165,0.592,9.151
												c0.122,0.939,0.246,1.866,0.37,2.794C253.43,256.982,255.142,264.701,253.084,268.862z"/>
										</g>
									</g>
								</g>
							</g>
							<g>
								<g>
									<path style="fill:#C9DAF4;" d="M197.482,343.686c-0.512,0-1.033-0.039-1.562-0.118c-3.288-0.49-5.895-2.079-7.747-4.723
										c-5.407-7.72-2.63-21.745-2.509-22.338c0.032-0.156,0.125-0.293,0.259-0.379c0.133-0.087,0.296-0.116,0.452-0.08
										l25.231,5.718c0.297,0.067,0.494,0.349,0.457,0.651c-0.071,0.57-1.823,14.016-8.704,19.239
										C201.58,343.006,199.609,343.686,197.482,343.686z M186.717,317.34c-0.465,2.757-2.084,14.39,2.427,20.828
										c1.658,2.367,3.996,3.79,6.95,4.229c2.403,0.358,4.606-0.209,6.549-1.684c5.749-4.364,7.77-15.368,8.167-17.913
										L186.717,317.34z"/>
								</g>
								<g>
									<path style="fill:#C9DAF4;" d="M210.747,326.826c-0.042,0-0.086-0.004-0.129-0.014l-25.065-5.565
										c-0.319-0.071-0.521-0.387-0.45-0.706c0.071-0.319,0.387-0.523,0.706-0.449l25.065,5.565
										c0.319,0.071,0.52,0.387,0.449,0.706C211.263,326.639,211.019,326.826,210.747,326.826z"/>
								</g>
							</g>
							<g>
								<path style="fill:#C9DAF4;" d="M227.24,362.017c-0.304,0-0.562-0.232-0.589-0.541c-0.044-0.513-4.454-51.372-5.212-61.476
									c-0.757-10.083-5.441-45.18-5.489-45.534c-0.043-0.324,0.184-0.622,0.508-0.665c0.324-0.042,0.622,0.184,0.665,0.508
									c0.047,0.354,4.736,35.485,5.496,45.602c0.758,10.096,5.167,60.949,5.211,61.462c0.028,0.326-0.213,0.613-0.539,0.641
									C227.274,362.017,227.257,362.017,227.24,362.017z"/>
							</g>
							<g>
								<path style="fill:#C9DAF4;" d="M229.841,362.431c-0.028,0-0.056-0.002-0.084-0.006
									c-21.601-3.061-60.187-15.807-60.575-15.935c-0.31-0.103-0.479-0.438-0.376-0.748c0.103-0.31,0.438-0.479,0.748-0.375
									c0.386,0.128,38.872,12.841,60.368,15.886c0.324,0.046,0.549,0.346,0.503,0.669
									C230.385,362.217,230.131,362.431,229.841,362.431z"/>
							</g>
						</g>
						<g>
							<path style="fill:#FF4267;" d="M239.76,308.423h-13.596c0,0-2.254-17.437-3.995-33.182c-0.047-0.42-0.093-0.837-0.14-1.254
								c-1.032-9.449-1.855-18.096-1.852-21.724c0.003-3.056-0.846-7.798-2.012-12.876c-0.149-0.653-0.303-1.309-0.464-1.969
								c-2.572-10.674-6.226-22.416-6.226-22.416l19.438,2.497c0,0,0.51,7.562,3.508,17.577c0.869,2.908,1.551,5.573,2.082,8.061
								c0.099,0.452,0.19,0.895,0.277,1.336c1.814,9.149,1.627,15.926,1.627,23.681c0,2.138,0.096,5.967,0.236,10.441
								c0.012,0.397,0.023,0.799,0.038,1.204C239.075,292.115,239.76,308.423,239.76,308.423z"/>
						</g>
						<g>
							<g>
								<g>
									<path style="fill:#FF8C64;" d="M231.62,209.71l-0.707,7.79c-0.577,6.355-8.175,9.277-12.886,4.973
										c-5.489-5.014-10.068-11.299-9.183-16.232L231.62,209.71z"/>
								</g>
							</g>
						</g>
						<g>
							<g>
								<g>
									<g>
										<path style="fill:#662567;" d="M238.681,279.799c-3.091-0.397-6.55-1.283-10.283-2.779c-2.12-0.852-4.22-1.42-6.23-1.779
											c-0.047-0.42-0.093-0.837-0.14-1.254c2.184,0.371,4.485,0.977,6.827,1.916c3.561,1.426,6.854,2.286,9.787,2.692
											C238.655,278.991,238.667,279.394,238.681,279.799z"/>
									</g>
								</g>
							</g>
						</g>
						<g>
							<g>
								<g>
									<g>
										<path style="fill:#662567;" d="M236.78,244.473c-1.703,1.342-4.054,2.295-7.125,1.709
											c-3.249-0.621-7.617-3.628-11.49-6.795c-0.149-0.653-0.303-1.309-0.464-1.969c4.036,3.43,8.834,6.941,12.182,7.58
											c2.925,0.56,5.104-0.505,6.62-1.861C236.602,243.59,236.692,244.033,236.78,244.473z"/>
									</g>
								</g>
							</g>
						</g>
					</g>
					<g>
						<g>
							<g>
								<path style="fill:#C9DAF4;" d="M244.236,295.713c-0.355,0-0.661-0.266-0.703-0.628c-0.651-5.691-0.821-15.607-0.823-15.706
									c-0.004-0.278,0.154-0.533,0.405-0.651c0.066-0.031,6.668-3.242,9.308-10.119c0.14-0.366,0.549-0.548,0.915-0.408
									c0.365,0.14,0.548,0.55,0.407,0.915c-2.484,6.471-8.037,9.834-9.61,10.68c0.041,1.982,0.24,10.187,0.805,15.129
									c0.044,0.389-0.234,0.74-0.623,0.784C244.29,295.711,244.263,295.713,244.236,295.713z"/>
							</g>
						</g>
					</g>
					<g>
						<g>
							<g>
								<g>
									<path style="fill:#21181E;" d="M250.777,166.752c0,0,3.498,10.712-2.274,14.774l-0.319-14.654L250.777,166.752z"/>
								</g>
							</g>
						</g>
						<g>
							<g>
								<g>
									<path style="fill:#21181E;" d="M244.736,155.274c0,0-13.414-13.557-29.681-2.709
										c-16.549,11.037-15.071,39.762-0.388,43.436C214.667,196.001,239.448,174.955,244.736,155.274z"/>
								</g>
							</g>
						</g>
						<g>
							<g>
								<g>
									<g>
										<g>
											<g>
												<g>
													<path style="fill:#FF6A48;" d="M244.284,183.401c0,0,4.012-3.242,5.124,0.979c1.112,4.221-1.807,11.777-6.544,9.545
														L244.284,183.401z"/>
												</g>
											</g>
										</g>
									</g>
								</g>
							</g>
							<g>
								<g>
									<g>
										<g>
											<g>
												<g>
													<g>
														<path style="fill:#FF8C64;" d="M232.917,201.804l-1.577,10.615c0,0-7.842,8.186-22.495-6.179
															c3.858-2.942,5.267-9.672,4.764-14.008c0,0,1.152,0.674,2.928,2.248c0.348,0.308,0.79,0.545,1.226,0.836
															C221.622,197.878,227.528,201.201,232.917,201.804z"/>
													</g>
												</g>
											</g>
										</g>
									</g>
								</g>
								<g>
									<g>
										<g>
											<g>
												<g>
													<g>
														<path style="fill:#FF6E64;" d="M232.917,201.804l-0.748,5.032c-4.368-1.887-12.099-5.943-15.632-12.356
															c0.381,0.266,0.79,0.545,1.226,0.836C221.622,197.878,227.528,201.201,232.917,201.804z"/>
													</g>
												</g>
											</g>
										</g>
									</g>
								</g>
							</g>
							<g>
								<g>
									<g>
										<g>
											<g>
												<g>
													<path style="fill:#FF8C64;" d="M242.795,199.567c-9.586,8.968-28.601-6.815-29.172-7.296
														c-0.009-0.008-0.014-0.013-0.014-0.013c-0.026-0.865-0.033-1.72-0.027-2.562c0.05-7.137,1.195-13.557,3.058-19.509
														c0.89-6.481,5.852-11.726,12.309-12.774c6.691-1.084,11.775,2.737,14.947,4.42c4.787,2.541,6.732,9.728,4.972,19.101
														C246.706,192.439,245.446,197.087,242.795,199.567z"/>
												</g>
											</g>
										</g>
									</g>
								</g>
							</g>
							<g>
								<g>
									<g>
										<g>
											<g>
												<g>
													<path style="fill:#21181E;" d="M236.151,169.675c0,0,1.825,0.539,0.846,2.119c-0.979,1.579-4.351-1.012-7.621,1.619
														C229.376,173.413,229.022,169.107,236.151,169.675z"/>
												</g>
											</g>
										</g>
									</g>
								</g>
							</g>
							<g>
								<g>
									<g>
										<g>
											<g>
												<g>
													<path style="fill:#21181E;" d="M244.578,171.285c0,0-1.895-0.171-1.567,1.658c0.327,1.829,4.417,0.663,6.487,4.314
														C249.498,177.256,251.415,173.384,244.578,171.285z"/>
												</g>
											</g>
										</g>
									</g>
								</g>
							</g>
							<g>
								<g>
									<g>
										<g>
											<g>
												<g>
													<g>
														<path style="fill:#FF6A48;" d="M233.014,182.855c-0.166,0.868-2.087,1.23-4.291,0.809
															c-2.204-0.421-3.857-1.466-3.691-2.333c0.166-0.868,2.087-1.23,4.291-0.809S233.18,181.988,233.014,182.855z"/>
													</g>
												</g>
											</g>
										</g>
									</g>
								</g>
							</g>
							<g style="opacity:0.8;">
								<g>
									<g>
										<g>
											<g>
												<g>
													<g>
														<path style="fill:#FF6A48;" d="M248.984,187.487c-0.314-0.028-0.64-0.074-0.971-0.138
															c-2.202-0.421-3.855-1.466-3.689-2.334c0.166-0.867,2.087-1.23,4.29-0.809c0.298,0.057,0.586,0.126,0.86,0.204
															L248.984,187.487z"/>
													</g>
												</g>
											</g>
										</g>
									</g>
								</g>
							</g>
							<g>
								<g>
									<g>
										<g>
											<g>
												<g>
													<path style="fill:#21181E;" d="M218.423,188.177c-0.082,0.122-2.343,3.457-4.8,4.093c-0.002,0-0.002,0.002-0.004,0.001
														c-0.007-0.009-0.01-0.014-0.01-0.014c-0.026-0.865-0.033-1.72-0.027-2.562
														C213.669,189.698,216.02,189.736,218.423,188.177z"/>
												</g>
											</g>
										</g>
									</g>
								</g>
							</g>
							<g>
								<g>
									<g>
										<g>
											<g>
												<g>
													<path style="fill:#FF8C64;" d="M217.821,179.485c0,0-3.542-7.31-7.993-2.948c-3.668,3.595-0.293,15.434,6.107,12.821
														L217.821,179.485z"/>
												</g>
											</g>
										</g>
									</g>
								</g>
							</g>
							<g>
								<g>
									<g>
										<g>
											<g>
												<g>
													<path style="fill:#21181E;" d="M215.652,187.306c-0.247-0.047-0.424-0.274-0.403-0.53
														c0.395-4.945-3.339-7.409-3.499-7.511c-0.232-0.149-0.299-0.458-0.15-0.689c0.148-0.232,0.456-0.3,0.688-0.152
														c0.18,0.115,4.4,2.875,3.956,8.432c-0.022,0.275-0.263,0.48-0.537,0.458
														C215.688,187.312,215.67,187.31,215.652,187.306z"/>
												</g>
											</g>
										</g>
									</g>
								</g>
							</g>
							<g>
								<g>
									<g>
										<g>
											<g>
												<g>
													<path style="fill:#21181E;" d="M211.645,183.46c-0.143-0.027-0.272-0.116-0.346-0.254
														c-0.13-0.243-0.04-0.545,0.203-0.676c0.226-0.122,2.249-1.171,3.649-0.513c0.25,0.117,0.357,0.414,0.24,0.664
														c-0.117,0.25-0.415,0.357-0.664,0.239c-0.805-0.379-2.259,0.225-2.751,0.489
														C211.869,183.466,211.753,183.481,211.645,183.46z"/>
												</g>
											</g>
										</g>
									</g>
								</g>
							</g>
							<g>
								<g>
									<g>
										<g>
											<g>
												<g>
													<g>
														<path style="fill:#21181E;" d="M234.653,178.219c-0.228,1.192-0.953,2.054-1.619,1.927
															c-0.667-0.127-1.023-1.197-0.795-2.388c0.228-1.192,0.953-2.054,1.62-1.927
															C234.525,175.958,234.881,177.027,234.653,178.219z"/>
													</g>
												</g>
											</g>
										</g>
									</g>
								</g>
								<g>
									<g>
										<g>
											<g>
												<g>
													<g>
														<path style="fill:#21181E;" d="M246.443,180.471c-0.228,1.192-0.953,2.054-1.619,1.927
															c-0.667-0.127-1.023-1.197-0.795-2.388c0.228-1.192,0.953-2.054,1.619-1.927
															C246.314,178.21,246.67,179.279,246.443,180.471z"/>
													</g>
												</g>
											</g>
										</g>
									</g>
								</g>
								<g>
									<g>
										<g>
											<g>
												<g>
													<g>
														<path style="fill:#21181E;" d="M238.527,190.742c-3.029-0.579-5.279-3.238-5.312-3.277
															c-0.176-0.212-0.147-0.527,0.065-0.703c0.212-0.176,0.527-0.147,0.703,0.065c0.175,0.209,4.215,4.961,8.466,2.144
															c0.23-0.152,0.539-0.089,0.692,0.14c0.152,0.23,0.089,0.54-0.14,0.692
															C241.439,190.839,239.902,191.005,238.527,190.742z"/>
													</g>
												</g>
											</g>
										</g>
									</g>
								</g>
							</g>
						</g>
						<g>
							<g>
								<g>
									<g>
										<g>
											<g>
												<path style="fill:#21181E;" d="M216.88,163.626c0,0,5.386,7.194,8.412,6.248c3.026-0.946-0.38-7.187-0.38-7.187
													s8.664,7.081,12.697,6.103c4.033-0.977-1.762-6.759-1.762-6.759s6.122,7.971,10.396,8.385
													c4.274,0.413,1.086-5.684,1.086-5.684s2.422,8.16,5.078,8.006c2.656-0.154,1.29-11.464-6.417-16.697
													C238.284,150.81,216.781,147.38,216.88,163.626z"/>
											</g>
										</g>
									</g>
								</g>
							</g>
						</g>
						<g>
							<g>
								<g>
									<g>
										<g>
											<g>
												<path style="fill:#21181E;" d="M222.6,166.309c0,0,0.657,14.139-3.557,14.927c-4.988,0.933-5.229-10.242-1.78-19.069
													L222.6,166.309z"/>
											</g>
										</g>
									</g>
								</g>
							</g>
						</g>
						<g>
							<g>
								<g>
									<g>
										<g>
											<g>
												<path style="fill:#21181E;" d="M240.264,184.001c-0.613-0.117-1.417-0.385-2.16-0.988
													c-0.214-0.174-0.247-0.488-0.073-0.702c0.174-0.214,0.488-0.246,0.702-0.073c0.675,0.549,1.428,0.746,1.926,0.816
													l-0.732-4.936c-0.04-0.273,0.148-0.526,0.421-0.567c0.273-0.04,0.527,0.148,0.567,0.421l0.821,5.543
													c0.021,0.138-0.018,0.279-0.106,0.387c-0.088,0.109-0.217,0.175-0.357,0.184
													C241.24,184.089,240.835,184.111,240.264,184.001z"/>
											</g>
										</g>
									</g>
								</g>
							</g>
						</g>
						<g>
							<g>
								<g>
									<g>
										<g>
											<g>
												<g>
													<g>
														<path style="fill:#FFFFFF;" d="M229.246,185.772c-1.656-0.661-3.021-1.863-3.894-3.444
															c-1-1.811-1.235-3.903-0.661-5.891c0.574-1.988,1.887-3.633,3.698-4.633c1.811-1,3.903-1.234,5.891-0.661
															c1.989,0.574,3.633,1.887,4.632,3.698c1,1.811,1.234,3.903,0.66,5.89c-0.574,1.987-1.887,3.633-3.698,4.632
															c-1.811,1-3.903,1.234-5.89,0.661C229.732,185.953,229.486,185.868,229.246,185.772z M234.714,172.154
															c-0.215-0.086-0.435-0.162-0.66-0.226c-1.778-0.513-3.65-0.303-5.27,0.591c-1.62,0.894-2.795,2.366-3.308,4.144
															s-0.303,3.65,0.591,5.27c0.894,1.62,2.364,2.796,4.145,3.309c1.778,0.513,3.65,0.303,5.27-0.591
															c1.62-0.895,2.795-2.366,3.309-4.144v0c0.513-1.778,0.303-3.65-0.591-5.27
															C237.416,173.821,236.195,172.746,234.714,172.154z"/>
													</g>
												</g>
											</g>
										</g>
									</g>
								</g>
							</g>
							<g>
								<g>
									<path style="fill:#FFFFFF;" d="M222.306,174.333l2.815,0.727c0.32,0.085,0.51,0.412,0.425,0.732
										c-0.085,0.318-0.412,0.51-0.732,0.425l-2.681-0.675L222.306,174.333z"/>
								</g>
							</g>
							<g style="opacity:0.5;">
								<path style="fill:#FFFFFF;" d="M239.383,179.917c-0.742,4.003-4.589,6.648-8.592,5.906
									c-4.004-0.742-6.648-4.589-5.906-8.592c0.742-4.003,4.589-6.648,8.592-5.906
									C237.48,172.067,240.124,175.914,239.383,179.917z"/>
							</g>
							<g>
								<g>
									<g>
										<g>
											<g>
												<g>
													<g>
														<path style="fill:#FFFFFF;" d="M246.029,188.177c-1.565-0.625-2.856-1.761-3.681-3.257
															c-0.945-1.712-1.167-3.69-0.624-5.568c0.542-1.879,1.783-3.434,3.496-4.379c1.712-0.945,3.689-1.167,5.568-0.625
															c3.876,1.119,6.123,5.186,5.004,9.064l0,0c-1.12,3.879-5.186,6.124-9.064,5.004
															C246.49,188.348,246.257,188.268,246.029,188.177z M251.175,175.342c-0.199-0.079-0.403-0.149-0.613-0.21
															c-1.67-0.482-3.427-0.285-4.948,0.555c-1.521,0.84-2.624,2.222-3.106,3.891c-0.482,1.67-0.285,3.427,0.555,4.948
															c0.84,1.521,2.221,2.624,3.891,3.106c3.447,0.995,7.06-1,8.054-4.446l0,0
															C255.942,179.95,254.24,176.566,251.175,175.342z"/>
													</g>
												</g>
											</g>
										</g>
									</g>
								</g>
							</g>
							<g style="opacity:0.5;">
								<path style="fill:#FFFFFF;" d="M255.781,182.731c-0.72,3.883-4.451,6.449-8.335,5.729c-3.884-0.72-6.449-4.451-5.729-8.335
									c0.72-3.884,4.451-6.449,8.335-5.729C253.936,175.116,256.5,178.847,255.781,182.731z"/>
							</g>
							<g>
								<g>
									<g>
										<g>
											<g>
												<g>
													<g>
														<path style="fill:#FFFFFF;" d="M239.264,179.381c-0.12-0.048-0.224-0.139-0.285-0.264
															c-0.131-0.268-0.025-0.59,0.242-0.724c0.068-0.035,1.686-0.822,3.258,0.57c0.225,0.199,0.246,0.543,0.046,0.767
															c-0.199,0.225-0.543,0.246-0.768,0.046c-1.009-0.894-2.01-0.43-2.052-0.41
															C239.56,179.435,239.401,179.436,239.264,179.381z"/>
													</g>
												</g>
											</g>
										</g>
									</g>
								</g>
							</g>
						</g>
					</g>
					<g>
						<g>
							<path style="fill:#C9DAF4;" d="M231.643,210.377c0,0,3.112,1.009,5.821,4.274l2.367,12.26L237.232,230l3.281,1.622
								c0,0,2.352,10.892,4.223,20.078l-6.573,5.395c-1.66-13.958-7.195-32.079-7.262-40.855L231.643,210.377z"/>
						</g>
					</g>
					<g>
						<path style="fill:#C9DAF4;" d="M209.176,206.148c0,0-5.67,0.804-7.195,3.575l4.847,16.02l4.352,1.678
							c-0.163,0.338-2.336,5.173-2.336,5.173l4.182,20.856l7.151,3.645C220.177,257.095,222.796,244.992,209.176,206.148z"/>
					</g>
				</g>
				<g>
					<g>
						<g>
							<g>
								<path style="fill:#FF8C64;" d="M255.679,309.557c0,0,16.511-0.457,22.089,3.871l-3.095,11.018c0,0-9.088-2.67-11.68-2.022
									c-2.591,0.648-3.715,5.13-12.782,3.41L255.679,309.557z"/>
							</g>
						</g>
					</g>
					<g>
						<g>
							<g>
								<path style="fill:#FFFFFF;" d="M202.323,223.889l-0.249,0.579l-0.333,0.817c-0.223,0.563-0.445,1.148-0.662,1.742
									c-0.44,1.186-0.86,2.407-1.252,3.643c-0.788,2.472-1.471,5.004-2.049,7.555c-1.19,5.096-1.955,10.283-2.231,15.438
									c-0.074,1.289-0.107,2.577-0.118,3.861c-0.017,1.284,0,2.566,0.051,3.842c0.046,1.277,0.129,2.549,0.245,3.815
									c0.109,1.267,0.264,2.525,0.443,3.777c0.169,1.255,0.394,2.496,0.63,3.734c0.251,1.234,0.523,2.464,0.839,3.679
									c0.317,1.215,0.658,2.424,1.048,3.616c0.186,0.599,0.393,1.191,0.6,1.783l0.077,0.222l0.031,0.091l-0.037-0.091
									c-0.061-0.13-0.097-0.21-0.148-0.295c-0.081-0.145-0.129-0.208-0.156-0.23c-0.029-0.023,0.049,0.124,0.237,0.342
									c0.182,0.218,0.448,0.499,0.768,0.803c0.646,0.613,1.496,1.308,2.432,2c1.887,1.395,4.111,2.788,6.426,4.138
									c4.657,2.704,9.737,5.211,14.896,7.62c5.176,2.396,10.471,4.689,15.822,6.892c2.673,1.11,5.361,2.195,8.058,3.256
									l4.05,1.571l2.02,0.777l1.976,0.746l-5.893,18.173l-2.236-0.654l-2.182-0.653c-1.449-0.443-2.891-0.897-4.332-1.355
									c-2.881-0.918-5.752-1.862-8.619-2.836c-5.727-1.966-11.433-4.05-17.124-6.348c-5.699-2.297-11.367-4.782-17.098-7.758
									c-2.871-1.498-5.745-3.131-8.709-5.129c-1.484-1.01-2.992-2.112-4.561-3.461c-0.785-0.679-1.588-1.424-2.412-2.29
									c-0.821-0.863-1.678-1.868-2.538-3.116c-0.433-0.64-0.864-1.337-1.281-2.142c-0.211-0.418-0.412-0.83-0.609-1.304
									l-0.144-0.347l-0.067-0.169l-0.117-0.297c-0.314-0.793-0.625-1.588-0.912-2.39c-0.591-1.6-1.122-3.221-1.616-4.851
									c-0.493-1.631-0.929-3.276-1.331-4.928c-0.386-1.654-0.751-3.314-1.045-4.982c-1.183-6.674-1.66-13.424-1.446-20.093
									c0.204-6.672,1.028-13.262,2.38-19.725c0.695-3.229,1.521-6.425,2.495-9.603c0.486-1.59,1.01-3.174,1.583-4.769
									c0.29-0.796,0.593-1.595,0.916-2.407c0.161-0.406,0.328-0.816,0.505-1.238l0.277-0.649l0.152-0.347l0.208-0.46
									L202.323,223.889z"/>
							</g>
							<g>
								<path style="fill:#C9DAF4;" d="M227.705,321.21c-0.048,0-0.097-0.006-0.146-0.018c-0.225-0.057-22.623-5.793-33.268-11.741
									c-10.746-6.004-15.206-15.544-15.39-15.946c-0.136-0.297-0.005-0.648,0.292-0.785c0.297-0.136,0.648-0.006,0.785,0.291
									c0.044,0.095,4.497,9.598,14.892,15.406c10.509,5.872,32.758,11.57,32.982,11.627c0.317,0.081,0.508,0.403,0.428,0.72
									C228.21,321.032,227.97,321.21,227.705,321.21z"/>
							</g>
						</g>
					</g>
					<g>
						<g>
							<g>
								<g>
									<path style="fill:#C9DAF4;" d="M191.251,287.6c-0.225,0-0.447-0.107-0.584-0.307c-0.221-0.322-0.14-0.763,0.183-0.984
										c3.986-2.737,9.396-5.174,9.624-5.277c0.357-0.159,0.776,0,0.936,0.357c0.16,0.357,0,0.776-0.356,0.936
										c-0.055,0.025-5.523,2.488-9.402,5.152C191.529,287.56,191.389,287.6,191.251,287.6z"/>
								</g>
							</g>
						</g>
						<g>
							<g>
								<g>
									<path style="fill:#C9DAF4;" d="M193.506,282.927c-0.36,0-0.668-0.273-0.704-0.638c-0.039-0.389,0.246-0.736,0.635-0.775
										c0.162-0.016,3.995-0.39,6.955-0.37c0.391,0.003,0.705,0.323,0.702,0.714c-0.003,0.391-0.328,0.697-0.714,0.703
										c-2.88-0.021-6.765,0.359-6.804,0.363C193.553,282.927,193.529,282.927,193.506,282.927z"/>
								</g>
							</g>
						</g>
					</g>
					<g>
						<g>
							<g>
								<g>
									<path style="fill:#C9DAF4;" d="M223.861,294.783c-12.978-6.998-21.093-12.482-22.226-13.473
										c-0.583-3.063-7.192-38.617-2.799-51.233c0.129-0.37-0.067-0.773-0.436-0.902c-0.37-0.129-0.773,0.066-0.902,0.436
										c-4.695,13.482,2.479,50.605,2.787,52.179c0.019,0.098,0.058,0.19,0.116,0.271c0.528,0.751,9.509,6.919,24.23,14.751
										C224.404,296.125,224.154,295.445,223.861,294.783z"/>
								</g>
							</g>
						</g>
						<g>
							<g>
								<g>
									<path style="fill:#C9DAF4;" d="M197.561,235.85c-0.179,0-0.358-0.067-0.496-0.203c-0.279-0.274-0.283-0.722-0.01-1.001
										l3.061-3.12c0.274-0.279,0.723-0.284,1.001-0.01c0.279,0.274,0.284,0.722,0.01,1.001l-3.061,3.12
										C197.928,235.779,197.745,235.85,197.561,235.85z"/>
								</g>
							</g>
						</g>
					</g>
					<g>
						<g>
							<g>
								<g>
									<g>
										<path style="fill:#C9DAF4;" d="M239.116,324.732c-0.075,0-0.151-0.012-0.226-0.037c-0.371-0.125-0.57-0.526-0.446-0.897
											l5.948-17.704c0.125-0.371,0.526-0.57,0.897-0.446c0.371,0.125,0.57,0.526,0.446,0.897l-5.948,17.705
											C239.688,324.544,239.412,324.732,239.116,324.732z"/>
									</g>
								</g>
							</g>
							<g>
								<g>
									<g>
										<path style="fill:#C9DAF4;" d="M250.634,323.918c-0.079,0-0.159-0.013-0.237-0.041l-9.733-3.456
											c-0.369-0.131-0.562-0.535-0.431-0.904c0.131-0.369,0.536-0.561,0.904-0.43l9.733,3.456
											c0.369,0.131,0.561,0.535,0.43,0.904C251.199,323.737,250.925,323.918,250.634,323.918z"/>
									</g>
								</g>
							</g>
						</g>
						<g>
							<g>
								<g>
									<path style="fill:#C9DAF4;" d="M249.211,316.18c0.151,0.891-0.449,1.736-1.34,1.887c-0.891,0.151-1.736-0.449-1.887-1.34
										c-0.151-0.891,0.449-1.736,1.34-1.887C248.215,314.689,249.06,315.289,249.211,316.18z"/>
								</g>
							</g>
						</g>
					</g>
				</g>
			</g>
		</g>
		<g style="clip-path:url(#SVGID_00000178895433012155426020000008479928796964481940_);">
			<g>
				<path style="fill:none;stroke:#9BA2BF;stroke-width:1.4157;stroke-miterlimit:10;" d="M399.333,52.106"/>
			</g>
		</g>
		<g style="clip-path:url(#SVGID_00000178895433012155426020000008479928796964481940_);">
			<g>
				
					<ellipse transform="matrix(0.7071 -0.7071 0.7071 0.7071 48.8519 326.1331)" style="fill:#D48111;" cx="418.103" cy="104.097" rx="11.353" ry="11.353"/>
				<polygon style="fill:#4572BA;" points="418.103,69.676 386.943,98.042 449.264,98.042 				"/>
				<polyline style="fill:#4572BA;" points="419.512,83.859 419.512,-172.841 416.695,-172.841 416.695,83.859 				"/>
			</g>
			<g>
				
					<ellipse transform="matrix(0.1602 -0.9871 0.9871 0.1602 102.3896 328.5386)" style="fill:#D48111;" cx="244.27" cy="104.097" rx="11.353" ry="11.353"/>
				<polygon style="fill:#4572BA;" points="244.27,69.676 213.11,98.042 275.431,98.042 				"/>
				<polyline style="fill:#4572BA;" points="245.679,83.859 245.679,-172.841 242.862,-172.841 242.862,83.859 				"/>
			</g>
		</g>
	</g>
</g>
</svg>
