<svg width="920" height="720" viewBox="0 0 920 720" fill="none" xmlns="http://www.w3.org/2000/svg">
  <rect width="920" height="720" rx="42" fill="#F6FFFD"/>
  <circle cx="737" cy="122" r="78" fill="#DDF7F4"/>
  <circle cx="124" cy="597" r="96" fill="#E8FAF8"/>
  <path d="M116 160C116 119.131 149.131 86 190 86H730C770.869 86 804 119.131 804 160V560C804 600.869 770.869 634 730 634H190C149.131 634 116 600.869 116 560V160Z" fill="white"/>
  <path d="M116 160C116 119.131 149.131 86 190 86H730C770.869 86 804 119.131 804 160V200H116V160Z" fill="#2A5267"/>
  <circle cx="171" cy="143" r="12" fill="#4FD1C5"/>
  <circle cx="209" cy="143" r="12" fill="#87E0DA"/>
  <circle cx="247" cy="143" r="12" fill="#BDF2EE"/>
  <rect x="164" y="246" width="192" height="124" rx="24" fill="#E9FBF8"/>
  <rect x="386" y="246" width="372" height="56" rx="18" fill="#F3F7FA"/>
  <rect x="386" y="322" width="300" height="24" rx="12" fill="#DCE8EE"/>
  <rect x="386" y="362" width="244" height="24" rx="12" fill="#DCE8EE"/>
  <rect x="164" y="410" width="594" height="150" rx="24" fill="#F9FBFC"/>
  <rect x="202" y="446" width="106" height="78" rx="16" fill="#4FD1C5"/>
  <rect x="335" y="446" width="106" height="78" rx="16" fill="#E3F7F4"/>
  <rect x="468" y="446" width="106" height="78" rx="16" fill="#E3F7F4"/>
  <rect x="601" y="446" width="106" height="78" rx="16" fill="#E3F7F4"/>
  <path d="M217 503L238 480L254 492L289 461" stroke="white" stroke-width="10" stroke-linecap="round" stroke-linejoin="round"/>
  <path d="M360 495H416M360 476H404" stroke="#38B2AC" stroke-width="10" stroke-linecap="round"/>
  <path d="M497 495H545M497 476H531" stroke="#38B2AC" stroke-width="10" stroke-linecap="round"/>
  <path d="M630 495H684M630 476H667" stroke="#38B2AC" stroke-width="10" stroke-linecap="round"/>
  <circle cx="260" cy="308" r="42" fill="#4FD1C5"/>
  <path d="M260 276V340M228 308H292" stroke="white" stroke-width="14" stroke-linecap="round"/>
  <path d="M312 310C312 338.719 288.719 362 260 362C231.281 362 208 338.719 208 310C208 281.281 231.281 258 260 258" stroke="#2A5267" stroke-width="10" stroke-linecap="round"/>
  <path d="M684 144H738" stroke="#4FD1C5" stroke-width="12" stroke-linecap="round"/>
  <path d="M642 144H650" stroke="#4FD1C5" stroke-width="12" stroke-linecap="round"/>
</svg>
